<svg width="323" height="69" viewBox="0 0 323 69" fill="none" xmlns="http://www.w3.org/2000/svg">
<g filter="url(#filter0_d_417_188)">
<path d="M4 15C4 6.71573 10.7157 0 19 0H304C312.284 0 319 6.71573 319 15V46C319 54.2843 312.284 61 304 61H19C10.7157 61 4 54.2843 4 46V15Z" fill="#0F75BC"/>
</g>
<path d="M120.399 25.427C120.399 25.9297 120.331 26.4323 120.196 26.935C120.08 27.4377 119.877 27.9017 119.587 28.327C119.297 28.733 118.92 29.1003 118.456 29.429C117.992 29.7383 117.431 29.9703 116.774 30.125V30.299C117.354 30.3957 117.905 30.56 118.427 30.792C118.949 31.024 119.403 31.343 119.79 31.749C120.177 32.155 120.476 32.648 120.689 33.228C120.921 33.808 121.037 34.4943 121.037 35.287C121.037 36.331 120.815 37.2397 120.37 38.013C119.925 38.767 119.326 39.3857 118.572 39.869C117.837 40.3523 116.996 40.71 116.049 40.942C115.102 41.174 114.125 41.29 113.12 41.29C112.791 41.29 112.366 41.29 111.844 41.29C111.341 41.29 110.79 41.2707 110.191 41.232C109.611 41.2127 109.012 41.174 108.393 41.116C107.794 41.058 107.243 40.971 106.74 40.855V20.845C107.107 20.787 107.523 20.729 107.987 20.671C108.47 20.613 108.983 20.5647 109.524 20.526C110.065 20.4873 110.616 20.4583 111.177 20.439C111.757 20.4197 112.327 20.41 112.888 20.41C113.835 20.41 114.754 20.4873 115.643 20.642C116.552 20.7773 117.354 21.0287 118.05 21.396C118.765 21.7633 119.336 22.2757 119.761 22.933C120.186 23.5903 120.399 24.4217 120.399 25.427ZM113.149 38.013C113.632 38.013 114.096 37.955 114.541 37.839C115.005 37.723 115.411 37.549 115.759 37.317C116.107 37.0657 116.387 36.7563 116.6 36.389C116.813 36.0217 116.919 35.5867 116.919 35.084C116.919 34.446 116.793 33.9433 116.542 33.576C116.291 33.2087 115.962 32.9283 115.556 32.735C115.15 32.5223 114.696 32.387 114.193 32.329C113.69 32.271 113.188 32.242 112.685 32.242H110.568V37.839C110.665 37.8777 110.819 37.9067 111.032 37.926C111.245 37.9453 111.467 37.9647 111.699 37.984C111.95 37.984 112.202 37.9937 112.453 38.013C112.724 38.013 112.956 38.013 113.149 38.013ZM111.844 29.226C112.115 29.226 112.424 29.2163 112.772 29.197C113.139 29.1777 113.439 29.1487 113.671 29.11C114.406 28.878 115.034 28.53 115.556 28.066C116.097 27.602 116.368 26.993 116.368 26.239C116.368 25.7363 116.271 25.3207 116.078 24.992C115.885 24.6633 115.624 24.4023 115.295 24.209C114.986 24.0157 114.628 23.8803 114.222 23.803C113.816 23.7257 113.391 23.687 112.946 23.687C112.443 23.687 111.979 23.6967 111.554 23.716C111.129 23.7353 110.8 23.7643 110.568 23.803V29.226H111.844ZM123.091 33.75C123.091 31.2947 123.69 29.4097 124.889 28.095C126.087 26.761 127.769 26.094 129.935 26.094C131.095 26.094 132.1 26.2777 132.951 26.645C133.801 27.0123 134.507 27.5343 135.068 28.211C135.628 28.8683 136.044 29.6707 136.315 30.618C136.605 31.5653 136.75 32.6093 136.75 33.75C136.75 36.2053 136.15 38.1 134.952 39.434C133.772 40.7487 132.1 41.406 129.935 41.406C128.775 41.406 127.769 41.2223 126.919 40.855C126.068 40.4877 125.353 39.9753 124.773 39.318C124.212 38.6413 123.787 37.8293 123.497 36.882C123.226 35.9347 123.091 34.8907 123.091 33.75ZM126.977 33.75C126.977 34.388 127.035 34.9777 127.151 35.519C127.267 36.0603 127.441 36.534 127.673 36.94C127.905 37.346 128.204 37.665 128.572 37.897C128.958 38.1097 129.413 38.216 129.935 38.216C130.921 38.216 131.655 37.8583 132.139 37.143C132.622 36.4277 132.864 35.2967 132.864 33.75C132.864 32.416 132.641 31.343 132.197 30.531C131.752 29.6997 130.998 29.284 129.935 29.284C129.007 29.284 128.282 29.632 127.76 30.328C127.238 31.024 126.977 32.1647 126.977 33.75ZM138.667 33.75C138.667 31.2947 139.266 29.4097 140.465 28.095C141.664 26.761 143.346 26.094 145.511 26.094C146.671 26.094 147.676 26.2777 148.527 26.645C149.378 27.0123 150.083 27.5343 150.644 28.211C151.205 28.8683 151.62 29.6707 151.891 30.618C152.181 31.5653 152.326 32.6093 152.326 33.75C152.326 36.2053 151.727 38.1 150.528 39.434C149.349 40.7487 147.676 41.406 145.511 41.406C144.351 41.406 143.346 41.2223 142.495 40.855C141.644 40.4877 140.929 39.9753 140.349 39.318C139.788 38.6413 139.363 37.8293 139.073 36.882C138.802 35.9347 138.667 34.8907 138.667 33.75ZM142.553 33.75C142.553 34.388 142.611 34.9777 142.727 35.519C142.843 36.0603 143.017 36.534 143.249 36.94C143.481 37.346 143.781 37.665 144.148 37.897C144.535 38.1097 144.989 38.216 145.511 38.216C146.497 38.216 147.232 37.8583 147.715 37.143C148.198 36.4277 148.44 35.2967 148.44 33.75C148.44 32.416 148.218 31.343 147.773 30.531C147.328 29.6997 146.574 29.284 145.511 29.284C144.583 29.284 143.858 29.632 143.336 30.328C142.814 31.024 142.553 32.1647 142.553 33.75ZM159.724 34.997H158.709V41H154.939V20.7H158.709V32.677L159.579 32.271L162.885 26.5H167.032L163.552 32.01L162.073 33.112L163.668 34.243L167.583 41H163.262L159.724 34.997ZM169.503 26.5H173.273V41H169.503V26.5ZM168.952 22.411C168.952 21.8503 169.155 21.3767 169.561 20.99C169.987 20.584 170.567 20.381 171.301 20.381C172.036 20.381 172.626 20.584 173.07 20.99C173.534 21.3767 173.766 21.8503 173.766 22.411C173.766 22.9717 173.534 23.4453 173.07 23.832C172.626 24.1993 172.036 24.383 171.301 24.383C170.567 24.383 169.987 24.1993 169.561 23.832C169.155 23.4453 168.952 22.9717 168.952 22.411ZM185.846 41V32.764C185.846 31.5847 185.672 30.734 185.324 30.212C184.996 29.69 184.425 29.429 183.613 29.429C182.898 29.429 182.289 29.6417 181.786 30.067C181.303 30.473 180.955 30.9853 180.742 31.604V41H176.972V26.5H179.959L180.394 28.414H180.51C180.955 27.7953 181.545 27.254 182.279 26.79C183.014 26.326 183.961 26.094 185.121 26.094C185.837 26.094 186.475 26.1907 187.035 26.384C187.596 26.5773 188.07 26.8963 188.456 27.341C188.843 27.7857 189.133 28.3947 189.326 29.168C189.52 29.922 189.616 30.8597 189.616 31.981V41H185.846ZM205.042 41C205.042 43.1073 204.472 44.654 203.331 45.64C202.19 46.6453 200.595 47.148 198.546 47.148C197.154 47.148 196.052 47.0513 195.24 46.858C194.447 46.6647 193.848 46.4617 193.442 46.249L194.225 43.262C194.67 43.436 195.182 43.61 195.762 43.784C196.361 43.958 197.096 44.045 197.966 44.045C199.281 44.045 200.17 43.755 200.634 43.175C201.117 42.6143 201.359 41.8217 201.359 40.797V39.869H201.243C200.566 40.7777 199.368 41.232 197.647 41.232C195.772 41.232 194.37 40.652 193.442 39.492C192.533 38.332 192.079 36.5147 192.079 34.04C192.079 31.4493 192.698 29.487 193.935 28.153C195.172 26.819 196.97 26.152 199.329 26.152C200.566 26.152 201.668 26.239 202.635 26.413C203.621 26.587 204.423 26.79 205.042 27.022V41ZM198.662 38.216C199.397 38.216 199.957 38.0517 200.344 37.723C200.75 37.3943 201.059 36.9013 201.272 36.244V29.719C200.673 29.4677 199.928 29.342 199.039 29.342C198.072 29.342 197.318 29.7093 196.777 30.444C196.236 31.1593 195.965 32.3097 195.965 33.895C195.965 35.3063 196.197 36.3793 196.661 37.114C197.125 37.8487 197.792 38.216 198.662 38.216ZM214.326 36.998C214.326 36.6113 214.162 36.302 213.833 36.07C213.504 35.838 213.098 35.6253 212.615 35.432C212.132 35.2387 211.6 35.0453 211.02 34.852C210.44 34.6393 209.908 34.359 209.425 34.011C208.942 33.6437 208.536 33.1893 208.207 32.648C207.878 32.0873 207.714 31.372 207.714 30.502C207.714 29.0713 208.139 27.979 208.99 27.225C209.841 26.471 211.068 26.094 212.673 26.094C213.775 26.094 214.771 26.21 215.66 26.442C216.549 26.674 217.245 26.935 217.748 27.225L216.907 29.951C216.462 29.777 215.902 29.5933 215.225 29.4C214.548 29.2067 213.862 29.11 213.166 29.11C212.045 29.11 211.484 29.545 211.484 30.415C211.484 30.763 211.648 31.0433 211.977 31.256C212.306 31.4687 212.712 31.6717 213.195 31.865C213.678 32.039 214.21 32.2323 214.79 32.445C215.37 32.6577 215.902 32.938 216.385 33.286C216.868 33.6147 217.274 34.0497 217.603 34.591C217.932 35.1323 218.096 35.8283 218.096 36.679C218.096 38.1483 217.622 39.3083 216.675 40.159C215.747 40.9903 214.345 41.406 212.47 41.406C211.445 41.406 210.479 41.2707 209.57 41C208.681 40.7487 207.956 40.449 207.395 40.101L208.439 37.288C208.884 37.5393 209.473 37.7907 210.208 38.042C210.943 38.274 211.697 38.39 212.47 38.39C213.031 38.39 213.475 38.2837 213.804 38.071C214.152 37.8583 214.326 37.5007 214.326 36.998Z" fill="white"/>
<defs>
<filter id="filter0_d_417_188" x="0" y="0" width="323" height="69" filterUnits="userSpaceOnUse" color-interpolation-filters="sRGB">
<feFlood flood-opacity="0" result="BackgroundImageFix"/>
<feColorMatrix in="SourceAlpha" type="matrix" values="0 0 0 0 0 0 0 0 0 0 0 0 0 0 0 0 0 0 127 0" result="hardAlpha"/>
<feOffset dy="4"/>
<feGaussianBlur stdDeviation="2"/>
<feComposite in2="hardAlpha" operator="out"/>
<feColorMatrix type="matrix" values="0 0 0 0 0 0 0 0 0 0 0 0 0 0 0 0 0 0 0.83 0"/>
<feBlend mode="normal" in2="BackgroundImageFix" result="effect1_dropShadow_417_188"/>
<feBlend mode="normal" in="SourceGraphic" in2="effect1_dropShadow_417_188" result="shape"/>
</filter>
</defs>
</svg>
