<svg width="361" height="108" viewBox="0 0 361 108" fill="none" xmlns="http://www.w3.org/2000/svg">
<g filter="url(#filter0_d_430_162)">
<rect x="4" width="171" height="100" rx="28" fill="white"/>
</g>
<path d="M134.211 72.2455V29.9573C137.626 29.9397 141.042 29.9203 144.456 29.9027C144.465 35.3947 144.473 40.8849 144.482 46.3769C146.696 42.2667 149.82 40.2125 153.852 40.2125C158.617 40.2125 161 42.5677 161 47.2764V72.2473H150.728V48.5138C150.728 46.7166 150.184 45.8189 149.096 45.8189C147.97 45.8189 146.919 46.9701 145.944 49.2743C144.969 51.5784 144.48 54.0498 144.48 56.6937V72.2455H134.211Z" fill="#1D76BB"/>
<path d="M147.553 46.4333C147.553 46.4333 151.477 38.498 156.927 40.7019C156.927 40.7019 160.958 41.619 160.959 47.2623V72.2332H150.783V47.7834C150.781 47.7834 150.25 44.2558 147.553 46.4333Z" fill="url(#paint0_linear_430_162)"/>
<path d="M128.949 47.7181L123.968 48.6792C123.968 44.0111 121.998 41.6787 118.059 41.6787C115.639 41.6787 114.429 42.7736 114.429 44.9616C114.429 46.5722 116.511 48.3078 120.677 50.1666C127.055 53.0376 130.245 56.6831 130.245 61.1031C130.245 68.1458 126.183 71.6681 118.061 71.6681C109.469 71.6681 105.173 68.1476 105.173 61.1031L110.463 59.9255C110.388 60.6067 110.351 61.2474 110.351 61.8459C110.351 63.6642 111.04 65.2432 112.419 66.5863C113.798 67.9293 115.425 68.6 117.302 68.6C119.777 68.6 121.016 67.4435 121.016 65.1305C121.016 63.5815 119.018 61.867 115.023 59.9871C109.001 57.1372 105.99 53.4812 105.99 49.019C105.99 46.0653 107.144 43.6432 109.451 41.7544C111.758 39.8657 114.722 38.9204 118.343 38.9204C124.774 38.9204 128.311 41.853 128.949 47.7181Z" fill="#1D76BB"/>
<path d="M114.908 42.6855C114.908 42.6855 107.979 47.8924 109.133 55.6621C109.133 55.6621 109.154 55.9719 109.266 56.199C109.266 56.199 111.02 57.8008 112.411 58.5753C112.411 58.5753 113.536 59.2372 113.72 59.3393C113.907 59.4431 116.361 60.6419 116.361 60.6419C116.361 60.6419 117.63 61.3548 117.744 61.4269C117.858 61.4991 119.642 62.6257 119.879 63.0076C119.879 63.0076 120.467 63.6167 120.55 63.8138C120.55 63.8138 121.221 64.5989 120.973 65.8592C120.973 65.8592 120.808 66.9436 120.334 67.4822C119.859 68.0191 119.044 68.6809 116.848 68.5982C114.652 68.5155 113.012 67.1319 113.012 67.1319C113.012 67.1319 110.909 65.3347 110.784 64.2081C110.784 64.2081 110.124 62.5957 110.351 61.3671L110.459 59.9254L105.169 61.103C105.169 61.103 105.225 62.8246 105.348 63.4231C105.471 64.0215 105.658 65.1481 106.121 66.0582C106.585 66.9682 106.657 67.1319 107.142 67.7533C107.142 67.7533 107.977 68.7443 108.328 68.9731C108.68 69.2002 108.885 69.4079 109.338 69.6966C109.792 69.9853 110.596 70.3584 110.596 70.3584C110.596 70.3584 112.556 71.1858 114.031 71.36C115.506 71.5361 117.104 71.7209 118.341 71.6593C119.578 71.5977 120.517 71.6082 121.332 71.4428C122.147 71.2773 123.92 71.0397 125.396 70.2141C126.87 69.3868 127.582 68.8605 128.511 67.5385C129.439 66.2166 129.801 64.6658 129.801 64.6658C129.801 64.6658 130.358 62.6098 130.224 60.7598C130.091 58.9098 129.585 57.7938 129.585 57.7938C129.585 57.7938 128.729 55.9649 128.017 55.2731C128.017 55.2731 126.274 53.2066 125.037 52.5975C125.037 52.5975 123.463 51.6153 122.637 51.1752C121.812 50.7352 119.722 49.7424 119.722 49.7424L117.714 48.6686C117.714 48.6686 115.377 47.4558 114.469 45.5548C114.469 45.5512 114.304 43.4565 114.908 42.6855Z" fill="url(#paint1_linear_430_162)"/>
<path d="M104.916 69.8076C102.402 70.8813 99.9545 71.4182 97.5719 71.4182C94.0439 71.4182 91.8687 70.2107 91.0429 67.7938C89.3351 70.3127 86.8788 71.5731 83.6704 71.5731C77.686 71.5731 74.6938 68.5173 74.6938 62.4022C74.6938 57.7551 77.433 54.4916 82.9114 52.6117C87.9382 50.8778 90.4525 48.7902 90.4525 46.354C90.4525 43.1538 89.0083 41.552 86.1197 41.552C82.7796 41.552 81.1105 43.101 81.1105 46.1991C81.1105 47.1707 81.3723 48.4504 81.8976 50.0399L76.804 48.9556C76.6722 47.9857 76.6072 47.0757 76.6072 46.229C76.6072 41.2721 80.7151 38.7937 88.9327 38.7937C96.7374 38.7937 100.64 41.1067 100.64 45.7326V64.6923C100.64 66.6338 101.212 67.6037 102.356 67.6037C102.713 67.6037 103.238 67.3872 103.932 66.9524L104.916 69.8076ZM90.3682 52.1487C89.7304 52.9532 88.9889 53.6256 88.1456 54.1624C86.0248 55.5249 84.9654 57.8185 84.9654 61.0397C84.9654 65.1711 85.6963 67.2358 87.1599 67.2358C89.2982 67.2358 90.3682 65.1922 90.3682 61.1014V52.1487Z" fill="#1D76BB"/>
<path d="M88.8377 53.5129C88.8377 53.5129 78.2868 55.3383 74.6937 62.4022C74.6937 62.4022 74.5654 68.887 78.5258 70.4571C78.5258 70.4571 83.2293 73.1028 88.0962 70.3744C88.0962 70.3744 89.9938 67.4823 90.2415 64.6712C90.2415 64.6712 89.2102 66.7377 88.2614 67.0686C87.3126 67.3996 85.7858 67.3996 85.415 65.4985C85.0443 63.5974 84.4662 59.878 85.6628 57.0669C86.8575 54.2575 88.8377 53.5129 88.8377 53.5129Z" fill="url(#paint2_linear_430_162)"/>
<path d="M62.7389 27L57.3923 47.2904C56.0921 45.3577 54.7919 43.4267 53.49 41.4939C52.2899 39.7108 51.6205 38.5525 50.4205 36.9331C48.5106 34.3561 47.4388 32.9109 46.5445 32.5307C46.4215 32.4779 46.302 32.4462 46.1825 32.4339C46.1825 32.4339 42.9584 34.7416 38.7433 40.737C36.5734 43.8245 34.7391 46.2923 33.539 47.8819L31.4008 27.0246H18C20.6285 42.0537 23.2587 57.0827 25.8872 72.1117C29.4065 72.1117 32.9276 72.1117 36.4469 72.1117C36.837 72.0976 37.227 72.0835 37.6153 72.0695C37.336 71.5009 37.1726 70.8267 37.1726 70.105V62.1927H36.8633C36.3204 62.1927 35.8759 61.7473 35.8759 61.2034C35.8759 60.7088 36.2449 60.3004 36.7192 60.2283C37.032 55.7801 40.8588 52.462 45.0106 52.7137C48.7882 52.9426 51.9947 56.0758 52.3251 60.098C52.427 60.0751 53.3476 59.8797 53.9116 60.4465C54.0065 60.5416 54.2753 60.8127 54.2648 61.2017C54.256 61.5256 54.0575 61.7473 53.9925 61.8195C53.7254 62.117 53.381 62.1768 53.2774 62.1909C52.9207 62.1909 52.564 62.1909 52.2073 62.1909V70.1033C52.2073 70.7651 52.0685 71.3865 51.8313 71.9234C53.0085 71.9515 54.184 71.9779 55.3612 72.0061L64.6997 71.7755L75.4158 27H62.7389Z" fill="url(#paint3_linear_430_162)"/>
<path d="M54.1998 62.1118H35.7775C35.6492 62.1118 35.5455 62.0079 35.5455 61.8794V60.5223C35.5455 60.3938 35.6492 60.2899 35.7775 60.2899H54.198C54.3263 60.2899 54.4299 60.3938 54.4299 60.5223V61.8794C54.4299 62.0079 54.3263 62.1118 54.1998 62.1118Z" stroke="url(#paint4_linear_430_162)" stroke-miterlimit="10"/>
<path d="M50.2078 60.1367C49.8828 60.1367 49.2994 60.8074 49.1132 61.0151C48.7882 61.3795 48.5351 61.7931 48.3682 62.2332C47.9922 63.2224 47.9255 64.2997 47.9571 65.3365C47.9799 66.1251 48.0151 66.9154 47.9413 67.7023C47.8657 68.5138 47.8745 68.9133 46.9222 69.0101C46.4654 69.0559 46.0384 68.9327 45.7995 68.5595C45.4041 67.9452 45.4797 66.9894 45.4656 66.3082C45.4498 65.4791 45.8926 64.3367 45.2811 63.6062C45.0018 63.2735 44.4343 63.1133 44.0548 63.3527C43.7174 63.5657 43.6471 63.9793 43.5891 64.3455C43.5382 64.6658 43.4749 64.9844 43.3976 65.2995C43.359 65.4632 43.3045 65.641 43.1499 65.7361C43.0023 65.8258 42.7985 65.8082 42.6439 65.7308C42.4892 65.6533 42.3733 65.5266 42.2714 65.3946C41.5668 64.4898 41.3806 63.3756 41.3331 62.2965C41.3261 62.1276 41.2347 60.1543 41.363 60.1543C44.3095 60.1473 47.2595 60.142 50.2078 60.1367Z" fill="#67A0D6"/>
<path d="M47.3175 66.148C47.3175 66.148 47.7831 67.9752 46.9784 68.1283C46.1772 68.2797 46.2159 67.6002 46.2159 67.5949C46.2123 67.6583 45.8855 67.8009 45.8644 67.9593C45.8082 68.3976 46.5251 68.7479 46.9274 68.6581C48.0765 68.3994 47.827 66.7641 47.3175 66.148Z" fill="#9BC7E8"/>
<path d="M42.6984 65.0426C42.6984 65.0426 41.8937 64.9282 41.8937 63.5569C41.8937 63.5569 42.1906 63.1767 42.2328 63.5569C42.275 63.9371 42.2749 64.5092 42.8267 64.8507C42.8267 64.8525 43.1658 65.2327 42.6984 65.0426Z" fill="#9BC7E8"/>
<path d="M41.4808 53.3474C41.4808 53.3474 28.528 56.5704 24.7874 66.2694L18 27.0246H31.4008L33.5408 47.8854C35.3716 45.1834 37.3992 42.3723 39.6376 39.4907C41.8304 36.6691 44.0073 34.0639 46.1281 31.6664C47.6549 33.4883 49.2011 35.4334 50.749 37.5069C53.2633 40.8778 55.4648 44.1624 57.3923 47.2922C59.1739 40.5275 60.9573 33.7646 62.7389 27H75.4158L65.71 67.1513C65.71 67.1513 59.1089 55.0285 47.4493 53.0447C47.4476 53.0447 42.3329 52.55 41.4808 53.3474Z" fill="url(#paint5_linear_430_162)"/>
<g filter="url(#filter1_d_430_162)">
<rect x="186" width="171" height="100" rx="28" fill="white"/>
</g>
<path d="M315.897 71.9639V29.687C318.858 29.687 322.195 29.4695 325.906 29.0363V46.1022C328.062 41.9937 331.106 39.9386 335.037 39.9386C339.68 39.9386 342.002 42.2917 342.002 46.9995V71.9639H331.993V48.2395C331.993 46.443 331.462 45.5456 330.402 45.5456C329.304 45.5456 328.281 46.6964 327.331 48.9981C326.38 51.3016 325.906 53.7728 325.906 56.417V71.9656H315.897V71.9639Z" fill="url(#paint6_linear_430_162)"/>
<path d="M328.496 46.5012C328.496 46.5012 332.448 38.5685 337.939 40.7726C337.939 40.7726 342 41.6889 342 47.3318V72.2962H331.748V47.8507C331.748 47.8507 331.212 44.3262 328.496 46.5012Z" fill="url(#paint7_linear_430_162)"/>
<path d="M310.769 48.7652L305.916 49.7259C305.916 45.0592 303.996 42.7266 300.157 42.7266C297.8 42.7266 296.621 43.821 296.621 46.0096C296.621 47.6195 298.649 49.3543 302.708 51.2125C308.923 54.0828 312.031 57.7271 312.031 62.1456C312.031 69.186 308.074 72.7071 300.159 72.7071C291.786 72.7071 287.601 69.186 287.601 62.1456L292.756 60.9691C292.684 61.6507 292.648 62.2912 292.648 62.8889C292.648 64.7059 293.32 66.2849 294.663 67.6276C296.005 68.9703 297.593 69.6416 299.42 69.6416C301.833 69.6416 303.039 68.4856 303.039 66.1719C303.039 64.6237 301.093 62.9094 297.2 61.0307C291.331 58.181 288.398 54.5263 288.398 50.0668C288.398 47.1143 289.521 44.6944 291.771 42.8037C294.02 40.913 296.907 39.9694 300.435 39.9694C306.702 39.9711 310.147 42.9013 310.769 48.7652Z" fill="url(#paint8_linear_430_162)"/>
<path d="M296.876 43.9666C296.876 43.9666 288.944 48.4295 291.517 57.1877C291.517 57.1877 294.33 59.7908 296.743 60.7824C299.154 61.774 300.923 63.1372 300.923 63.1372C300.923 63.1372 303.013 64.6666 303.013 66.0298C303.013 67.393 303.094 68.3435 301.326 69.3762C301.326 69.3762 298.23 70.3266 295.738 68.549C293.246 66.7713 292.763 64.3754 292.763 64.3754C292.763 64.3754 292.465 62.0617 292.755 60.9674L287.6 62.1439C287.6 62.1439 287.255 68.3418 292.119 70.9449C292.119 70.9449 295.052 73.3408 303.253 72.4742C303.253 72.4742 310.809 72.0615 311.814 64.6648C311.814 64.6648 313.501 59.1281 308.398 54.8312C308.398 54.8312 306.066 52.4764 301.684 50.7415C297.303 49.0084 295.924 46.3642 296.876 43.9666Z" fill="url(#paint9_linear_430_162)"/>
<path d="M280.936 60.5358L284.966 61.8682C284.546 69.0748 280.78 72.6781 273.67 72.6781C264.458 72.6781 259.851 67.4855 259.851 57.0987C259.851 52.0603 261.076 47.9312 263.525 44.7099C265.974 41.4885 269.109 39.8787 272.929 39.8787C280.918 39.8787 284.911 45.7014 284.911 57.347H270.325C270.325 65.5246 272.162 69.6125 275.836 69.6125C279.273 69.6125 280.992 67.3006 280.992 62.6749C280.992 62.0532 280.973 61.3408 280.936 60.5358ZM270.297 53.8465H276.274C276.274 46.5783 275.306 42.9442 273.368 42.9442C271.614 42.9442 270.626 45.6381 270.407 51.0276L270.297 53.8465Z" fill="url(#paint10_linear_430_162)"/>
<path d="M272.222 43.3055C272.222 43.3055 263.741 45.9087 259.923 54.7507C259.844 55.7286 259.807 56.8076 259.842 57.9738C259.899 59.82 260.125 61.4606 260.404 62.8495C260.512 63.3239 260.631 63.7384 260.745 64.0895C260.926 64.6478 261.098 65.0622 261.167 65.2249C261.293 65.5229 261.398 65.7387 261.49 65.9271C261.684 66.3295 261.889 66.7525 262.193 67.2492C262.391 67.5729 262.674 67.9976 263.056 68.4685C263.234 68.71 263.485 69.0234 263.82 69.3574C264.19 69.7256 264.502 69.9585 264.804 70.1845C265.266 70.5288 265.674 70.7805 265.969 70.9484C266.412 71.2018 266.762 71.3611 266.853 71.4022C267.188 71.5529 267.427 71.6402 267.858 71.7944C268.329 71.9639 268.563 72.0478 268.884 72.1249C268.989 72.1506 269.196 72.19 269.608 72.2688C270.014 72.3475 270.216 72.3869 270.371 72.4126C270.85 72.4965 271.21 72.5291 271.759 72.577C272.489 72.6421 272.855 72.6746 273.346 72.6798C273.885 72.6866 274.296 72.6524 275.114 72.5976C275.95 72.5411 276.243 72.4965 276.481 72.4537C276.717 72.4092 277.014 72.3355 277.607 72.1848C278.112 72.0564 278.37 71.9913 278.591 71.916C278.727 71.8697 279.123 71.731 279.616 71.4827C280.006 71.2857 280.276 71.1128 280.661 70.8627C281.012 70.635 281.3 70.4329 281.505 70.2839C281.877 69.9551 282.279 69.5458 282.67 69.044C283.603 67.8486 284.072 66.6378 284.318 65.7798C284.318 65.7798 284.845 64.3121 284.964 61.8648L280.935 60.5324C280.974 61.0188 280.998 61.536 281.004 62.0823C281.011 62.9746 280.962 63.7983 280.883 64.5399C280.876 64.7505 280.73 67.7184 278.411 69.044C277.384 69.6314 276.371 69.6451 275.835 69.6074C275.835 69.6074 273.306 69.7461 271.939 67.018C270.573 64.2915 270.195 58.6965 270.323 57.3419C270.323 57.3419 270.693 54.2935 273.467 53.963L270.295 53.8431C270.297 53.8465 270.212 44.4632 272.222 43.3055Z" fill="url(#paint11_linear_430_162)"/>
<path d="M224.473 30.7711C223.871 31.6462 223.516 32.7132 223.516 33.8658C223.516 36.8371 225.859 39.245 228.749 39.245C231.639 39.245 233.982 36.8371 233.982 33.8658C233.982 32.6892 233.609 31.6034 232.986 30.7163L228.77 37.9982L224.473 30.7711Z" fill="url(#paint12_linear_430_162)"/>
<path d="M228.883 39.3785C231.746 39.3785 234.066 36.8981 234.066 33.8383C234.066 30.7785 231.746 28.2981 228.883 28.2981C226.021 28.2981 223.701 30.7785 223.701 33.8383C223.701 36.8981 226.021 39.3785 228.883 39.3785Z" fill="#08974A"/>
<path d="M233.489 31.2814C232.913 30.0313 231.857 29.0517 230.509 28.5687C228.375 27.8049 226.45 28.942 225.04 30.5793C225.04 30.5793 231.743 31.2112 232.896 36.9998C232.882 36.9261 233.398 36.2651 233.448 36.1623C233.856 35.3386 233.978 34.359 233.968 33.4461C233.961 32.6721 233.792 31.9391 233.489 31.2814Z" fill="url(#paint13_linear_430_162)"/>
<path d="M231.619 29.2007C231.619 29.2007 225.345 30.8653 225.042 37.5221C225.042 37.5221 222.184 34.5251 224.473 30.7711C226.762 27.0171 231.112 28.5773 231.619 29.2007Z" fill="url(#paint14_linear_430_162)"/>
<path d="M223.516 33.8657C223.516 33.8657 228.36 38.1489 233.663 34.1192C233.77 34.0387 233.877 33.9548 233.983 33.8657C233.983 33.8657 234.447 38.7397 228.885 39.3785C228.884 39.3785 223.104 38.4246 223.516 33.8657Z" fill="url(#paint15_linear_430_162)"/>
<path d="M226.458 38.7689C226.458 38.7689 231.315 37.0015 231.619 29.2007C231.619 29.2007 235.869 32.0093 233.137 36.4809C233.136 36.4809 231.719 40.538 226.458 38.7689Z" fill="url(#paint16_linear_430_162)"/>
<path d="M247.446 27.0548C244.266 27.036 241.086 27.0188 237.906 27C237.274 28.2724 236.64 29.5432 236.007 30.8156L237.257 30.4714L237.937 33.0848L236.257 33.5472C236.278 33.7784 236.288 34.013 236.288 34.2494C236.288 34.722 236.247 35.1844 236.171 35.6331L237.805 36.2445L236.905 38.7877L235.271 38.1763C234.93 38.7843 234.513 39.3409 234.034 39.8324C234.192 40.2126 234.349 40.5928 234.507 40.9747C233.878 41.4388 233.249 41.9029 232.62 42.367C232.372 42.0399 232.126 41.7128 231.879 41.3874C231.457 41.5912 231.014 41.7539 230.554 41.8755C230.35 42.2899 230.145 42.7027 229.942 43.1171C229.83 43.3449 229.716 43.5727 229.604 43.8022C229.151 44.7218 228.696 45.6432 228.242 46.5628L226.107 41.6923C225.643 41.5261 225.199 41.3172 224.78 41.0672L223.661 42.4372L221.645 40.6972L222.763 39.3272C222.327 38.7963 221.958 38.2054 221.671 37.5666L219.992 38.029L219.311 35.4156L220.991 34.9532C220.971 34.722 220.96 34.4874 220.96 34.2511C220.96 33.7784 221.002 33.316 221.078 32.8673L219.442 32.2559L220.342 29.7127L220.952 29.9405C220.53 28.978 220.106 28.0156 219.683 27.0548C216.503 27.0548 213.323 27.0548 210.143 27.0548C207.096 42.1581 204.049 57.2631 201 72.3663C205.44 72.3663 209.881 72.3663 214.321 72.3663C215.03 65.2745 215.74 58.1827 216.448 51.0909C219.571 55.6138 222.693 60.1351 225.816 64.658C227.169 66.6189 228.522 68.5781 229.876 70.539C230.874 68.7083 231.874 66.8792 232.872 65.0485C234.023 62.9386 235.175 60.8287 236.326 58.7188C237.603 56.3777 238.88 54.0383 240.157 51.6972C241.855 58.7804 243.551 65.862 245.249 72.9452C249.571 72.964 253.896 72.9812 258.218 73C254.626 57.6844 251.036 42.3704 247.446 27.0548Z" fill="url(#paint17_linear_430_162)"/>
<path d="M240.157 51.6955C240.157 51.6955 250.042 36.2566 252.655 49.6832C254.492 57.4549 256.328 65.2266 258.165 73.0001C253.842 73.0001 249.518 73.0001 245.195 73.0001C243.515 65.898 241.836 58.7976 240.157 51.6955Z" fill="url(#paint18_linear_430_162)"/>
<path d="M216.448 51.0909C216.448 51.0909 207.32 50.2466 202.979 62.4213L201 72.3663H214.321L216.448 51.0909Z" fill="url(#paint19_linear_430_162)"/>
<defs>
<filter id="filter0_d_430_162" x="0" y="0" width="179" height="108" filterUnits="userSpaceOnUse" color-interpolation-filters="sRGB">
<feFlood flood-opacity="0" result="BackgroundImageFix"/>
<feColorMatrix in="SourceAlpha" type="matrix" values="0 0 0 0 0 0 0 0 0 0 0 0 0 0 0 0 0 0 127 0" result="hardAlpha"/>
<feOffset dy="4"/>
<feGaussianBlur stdDeviation="2"/>
<feComposite in2="hardAlpha" operator="out"/>
<feColorMatrix type="matrix" values="0 0 0 0 0.025 0 0 0 0 0.415 0 0 0 0 1 0 0 0 1 0"/>
<feBlend mode="normal" in2="BackgroundImageFix" result="effect1_dropShadow_430_162"/>
<feBlend mode="normal" in="SourceGraphic" in2="effect1_dropShadow_430_162" result="shape"/>
</filter>
<filter id="filter1_d_430_162" x="182" y="0" width="179" height="108" filterUnits="userSpaceOnUse" color-interpolation-filters="sRGB">
<feFlood flood-opacity="0" result="BackgroundImageFix"/>
<feColorMatrix in="SourceAlpha" type="matrix" values="0 0 0 0 0 0 0 0 0 0 0 0 0 0 0 0 0 0 127 0" result="hardAlpha"/>
<feOffset dy="4"/>
<feGaussianBlur stdDeviation="2"/>
<feComposite in2="hardAlpha" operator="out"/>
<feColorMatrix type="matrix" values="0 0 0 0 0.0629423 0 0 0 0 0.516667 0 0 0 0 0.0107639 0 0 0 1 0"/>
<feBlend mode="normal" in2="BackgroundImageFix" result="effect1_dropShadow_430_162"/>
<feBlend mode="normal" in="SourceGraphic" in2="effect1_dropShadow_430_162" result="shape"/>
</filter>
<linearGradient id="paint0_linear_430_162" x1="161.98" y1="56.8759" x2="146.924" y2="55.8741" gradientUnits="userSpaceOnUse">
<stop stop-color="#3789B9"/>
<stop offset="0.3602" stop-color="#3789B9"/>
<stop offset="0.5753" stop-color="#1D76BB"/>
<stop offset="1" stop-color="#2A3B8F"/>
</linearGradient>
<linearGradient id="paint1_linear_430_162" x1="127.559" y1="75.5653" x2="108.15" y2="48.2675" gradientUnits="userSpaceOnUse">
<stop stop-color="#3789B9"/>
<stop offset="0.3602" stop-color="#3789B9"/>
<stop offset="0.5753" stop-color="#1D76BB"/>
<stop offset="1" stop-color="#2A3B8F"/>
</linearGradient>
<linearGradient id="paint2_linear_430_162" x1="87.4856" y1="71.7267" x2="78.7011" y2="52.9192" gradientUnits="userSpaceOnUse">
<stop offset="0.3602" stop-color="#3789B9"/>
<stop offset="0.5753" stop-color="#1D76BB"/>
<stop offset="1" stop-color="#2A3B8F"/>
</linearGradient>
<linearGradient id="paint3_linear_430_162" x1="46.775" y1="31.5044" x2="47.4986" y2="79.2714" gradientUnits="userSpaceOnUse">
<stop stop-color="#3789B9"/>
<stop offset="0.3602" stop-color="#3789B9"/>
<stop offset="0.5753" stop-color="#1D76BB"/>
<stop offset="1" stop-color="#2A3B8F"/>
</linearGradient>
<linearGradient id="paint4_linear_430_162" x1="35.4582" y1="61.2004" x2="54.5185" y2="61.2004" gradientUnits="userSpaceOnUse">
<stop stop-color="#3789B9"/>
<stop offset="0.3602" stop-color="#3789B9"/>
<stop offset="0.5753" stop-color="#1D76BB"/>
<stop offset="1" stop-color="#2A3B8F"/>
</linearGradient>
<linearGradient id="paint5_linear_430_162" x1="60.7307" y1="69.477" x2="36.8005" y2="18.2428" gradientUnits="userSpaceOnUse">
<stop offset="0.3602" stop-color="#3789B9"/>
<stop offset="0.5753" stop-color="#1D76BB"/>
<stop offset="1" stop-color="#2A3B8F"/>
</linearGradient>
<linearGradient id="paint6_linear_430_162" x1="328.62" y1="42.6369" x2="329.058" y2="65.328" gradientUnits="userSpaceOnUse">
<stop stop-color="#6FC171"/>
<stop offset="1" stop-color="#08974A"/>
</linearGradient>
<linearGradient id="paint7_linear_430_162" x1="343.03" y1="56.9414" x2="327.863" y2="55.9239" gradientUnits="userSpaceOnUse">
<stop stop-color="#6FC171"/>
<stop offset="1" stop-color="#08974A"/>
</linearGradient>
<linearGradient id="paint8_linear_430_162" x1="299.444" y1="43.2203" x2="299.882" y2="65.9168" gradientUnits="userSpaceOnUse">
<stop stop-color="#6FC171"/>
<stop offset="1" stop-color="#08974A"/>
</linearGradient>
<linearGradient id="paint9_linear_430_162" x1="313.327" y1="81.2788" x2="293.052" y2="52.9762" gradientUnits="userSpaceOnUse">
<stop stop-color="#6FC171"/>
<stop offset="1" stop-color="#08974A"/>
</linearGradient>
<linearGradient id="paint10_linear_430_162" x1="272.12" y1="43.7657" x2="272.558" y2="66.4619" gradientUnits="userSpaceOnUse">
<stop stop-color="#6FC171"/>
<stop offset="1" stop-color="#08974A"/>
</linearGradient>
<linearGradient id="paint11_linear_430_162" x1="276.043" y1="69.4213" x2="264.223" y2="45.9613" gradientUnits="userSpaceOnUse">
<stop stop-color="#6FC171"/>
<stop offset="1" stop-color="#08974A"/>
</linearGradient>
<linearGradient id="paint12_linear_430_162" x1="223.516" y1="34.9803" x2="233.983" y2="34.9803" gradientUnits="userSpaceOnUse">
<stop stop-color="#F8EB32"/>
<stop offset="1" stop-color="#FEDD10"/>
</linearGradient>
<linearGradient id="paint13_linear_430_162" x1="225.041" y1="32.6634" x2="233.97" y2="32.6634" gradientUnits="userSpaceOnUse">
<stop stop-color="#6FC171"/>
<stop offset="1" stop-color="#08974A"/>
</linearGradient>
<linearGradient id="paint14_linear_430_162" x1="223.584" y1="32.9325" x2="231.618" y2="32.9325" gradientUnits="userSpaceOnUse">
<stop stop-color="#6FC171"/>
<stop offset="1" stop-color="#08974A"/>
</linearGradient>
<linearGradient id="paint15_linear_430_162" x1="231.567" y1="36.6502" x2="223.773" y2="35.0202" gradientUnits="userSpaceOnUse">
<stop stop-color="#6FC171"/>
<stop offset="1" stop-color="#08974A"/>
</linearGradient>
<linearGradient id="paint16_linear_430_162" x1="232.644" y1="34.7659" x2="227.815" y2="33.756" gradientUnits="userSpaceOnUse">
<stop stop-color="#6FC171"/>
<stop offset="1" stop-color="#08974A"/>
</linearGradient>
<linearGradient id="paint17_linear_430_162" x1="212.644" y1="31.3874" x2="239.777" y2="74.8763" gradientUnits="userSpaceOnUse">
<stop stop-color="#6FC171"/>
<stop offset="1" stop-color="#08974A"/>
</linearGradient>
<linearGradient id="paint18_linear_430_162" x1="245.56" y1="55.1504" x2="258.195" y2="75.4018" gradientUnits="userSpaceOnUse">
<stop stop-color="#6FC171"/>
<stop offset="1" stop-color="#08974A"/>
</linearGradient>
<linearGradient id="paint19_linear_430_162" x1="207.896" y1="58.0629" x2="212.715" y2="79.6667" gradientUnits="userSpaceOnUse">
<stop stop-color="#6FC171"/>
<stop offset="1" stop-color="#08974A"/>
</linearGradient>
</defs>
</svg>
