<svg width="107" height="66" viewBox="0 0 107 66" fill="none" xmlns="http://www.w3.org/2000/svg">
<g filter="url(#filter0_d_435_162)">
<rect x="4" width="99" height="58" rx="28" fill="white"/>
</g>
<path d="M77.657 40.4369V17.4604C79.2975 17.4604 81.1462 17.3422 83.2021 17.1067V26.3816C84.3967 24.1488 86.0831 23.0319 88.2612 23.0319C90.8337 23.0319 92.12 24.3107 92.12 26.8693V40.4369H86.5749V27.5432C86.5749 26.5669 86.2807 26.0791 85.6935 26.0791C85.0852 26.0791 84.518 26.7046 83.9918 27.9555C83.4647 29.2074 83.2021 30.5505 83.2021 31.9876V40.4378H77.657V40.4369Z" fill="url(#paint0_linear_435_162)"/>
<path d="M84.6372 26.5985C84.6372 26.5985 86.8268 22.2872 89.8691 23.4851C89.8691 23.4851 92.1189 23.9831 92.1189 27.0499V40.6175H86.4391V27.3319C86.4391 27.3319 86.1421 25.4164 84.6372 26.5985Z" fill="url(#paint1_linear_435_162)"/>
<path d="M74.8161 27.8289L72.1271 28.3511C72.1271 25.8148 71.0633 24.5471 68.9367 24.5471C67.6304 24.5471 66.9772 25.1418 66.9772 26.3313C66.9772 27.2063 68.1012 28.1491 70.35 29.159C73.7934 30.7189 75.5151 32.6996 75.5151 35.1009C75.5151 38.9272 73.3226 40.8408 68.9377 40.8408C64.2987 40.8408 61.9802 38.9272 61.9802 35.1009L64.8363 34.4615C64.7962 34.8319 64.7762 35.18 64.7762 35.5048C64.7762 36.4924 65.1486 37.3505 65.8925 38.0802C66.6363 38.8099 67.5158 39.1748 68.528 39.1748C69.8649 39.1748 70.5333 38.5465 70.5333 37.2891C70.5333 36.4477 69.4552 35.516 67.2981 34.495C64.0466 32.9462 62.4214 30.96 62.4214 28.5363C62.4214 26.9317 63.044 25.6165 64.2901 24.589C65.5363 23.5614 67.1358 23.0486 69.0905 23.0486C72.5625 23.0495 74.4714 24.642 74.8161 27.8289Z" fill="url(#paint2_linear_435_162)"/>
<path d="M67.1186 25.221C67.1186 25.221 62.7241 27.6465 64.1498 32.4064C64.1498 32.4064 65.7082 33.8212 67.045 34.3601C68.381 34.899 69.3607 35.6398 69.3607 35.6398C69.3607 35.6398 70.519 36.471 70.519 37.2119C70.519 37.9528 70.5639 38.4693 69.5841 39.0306C69.5841 39.0306 67.8691 39.5471 66.4883 38.581C65.1075 37.6149 64.8402 36.3128 64.8402 36.3128C64.8402 36.3128 64.675 35.0553 64.8354 34.4606L61.9793 35.1C61.9793 35.1 61.7883 38.4684 64.483 39.8831C64.483 39.8831 66.1083 41.1853 70.6517 40.7143C70.6517 40.7143 74.838 40.49 75.3947 36.4701C75.3947 36.4701 76.3296 33.461 73.5021 31.1257C73.5021 31.1257 72.2101 29.8459 69.7828 28.9031C67.3554 27.9611 66.5915 26.5241 67.1186 25.221Z" fill="url(#paint3_linear_435_162)"/>
<path d="M58.2878 34.226L60.5204 34.9501C60.2874 38.8667 58.2009 40.825 54.2619 40.825C49.1579 40.825 46.6055 38.003 46.6055 32.358C46.6055 29.6197 47.2844 27.3757 48.6413 25.6249C49.9982 23.8742 51.7352 22.9993 53.8513 22.9993C58.2773 22.9993 60.4898 26.1638 60.4898 32.4929H52.4084C52.4084 36.9373 53.4264 39.159 55.4622 39.159C57.3663 39.159 58.3183 37.9025 58.3183 35.3885C58.3183 35.0506 58.3078 34.6635 58.2878 34.226ZM52.3932 30.5905H55.7048C55.7048 26.6404 55.1681 24.6653 54.0948 24.6653C53.1227 24.6653 52.5755 26.1294 52.4543 29.0585L52.3932 30.5905Z" fill="url(#paint4_linear_435_162)"/>
<path d="M53.4596 24.8617C53.4596 24.8617 48.7605 26.2764 46.6454 31.0819C46.6014 31.6134 46.5814 32.1997 46.6005 32.8336C46.632 33.8369 46.7571 34.7286 46.9118 35.4834C46.9719 35.7413 47.0378 35.9665 47.1009 36.1573C47.2011 36.4607 47.2966 36.686 47.3348 36.7744C47.4045 36.9363 47.4628 37.0536 47.5134 37.156C47.6213 37.3747 47.7349 37.6046 47.903 37.8745C48.0128 38.0505 48.1694 38.2813 48.3814 38.5372C48.4797 38.6685 48.6192 38.8388 48.8044 39.0203C49.0097 39.2204 49.1826 39.347 49.3497 39.4698C49.6056 39.6569 49.8319 39.7937 49.9952 39.885C50.2406 40.0227 50.4344 40.1093 50.485 40.1316C50.6703 40.2135 50.803 40.261 51.0418 40.3448C51.3024 40.4369 51.4323 40.4825 51.6099 40.5244C51.6682 40.5384 51.7828 40.5598 52.011 40.6026C52.2363 40.6454 52.3481 40.6668 52.434 40.6808C52.6995 40.7264 52.8991 40.744 53.2027 40.7701C53.6076 40.8055 53.81 40.8232 54.0822 40.826C54.3811 40.8297 54.6083 40.8111 55.0619 40.7813C55.525 40.7506 55.6874 40.7264 55.8192 40.7031C55.95 40.6789 56.1142 40.6389 56.4427 40.557C56.7225 40.4872 56.8657 40.4518 56.988 40.4108C57.0634 40.3857 57.283 40.3103 57.5561 40.1754C57.7719 40.0683 57.9219 39.9743 58.1348 39.8384C58.3296 39.7146 58.4891 39.6048 58.6027 39.5238C58.809 39.3451 59.0315 39.1227 59.2482 38.85C59.7648 38.2003 60.0246 37.5423 60.1611 37.076C60.1611 37.076 60.4533 36.2783 60.5192 34.9483L58.2866 34.2241C58.3086 34.4885 58.322 34.7696 58.3248 35.0665C58.3286 35.5514 58.3019 35.9991 58.258 36.4021C58.2542 36.5166 58.173 38.1296 56.8887 38.85C56.3195 39.1692 55.758 39.1767 55.4611 39.1562C55.4611 39.1562 54.0602 39.2316 53.303 37.7489C52.5457 36.2671 52.3366 33.2264 52.4073 32.4901C52.4073 32.4901 52.6126 30.8334 54.149 30.6538L52.392 30.5886C52.3929 30.5905 52.3462 25.4909 53.4596 24.8617Z" fill="url(#paint5_linear_435_162)"/>
<path d="M27.0048 18.0495C26.6716 18.5251 26.4749 19.105 26.4749 19.7314C26.4749 21.3462 27.7726 22.6549 29.3739 22.6549C30.9753 22.6549 32.273 21.3462 32.273 19.7314C32.273 19.0919 32.0668 18.5018 31.7211 18.0197L29.3854 21.9773L27.0048 18.0495Z" fill="url(#paint6_linear_435_162)"/>
<path d="M29.4483 22.7275C31.0341 22.7275 32.3197 21.3794 32.3197 19.7165C32.3197 18.0536 31.0341 16.7055 29.4483 16.7055C27.8625 16.7055 26.5769 18.0536 26.5769 19.7165C26.5769 21.3794 27.8625 22.7275 29.4483 22.7275Z" fill="#08974A"/>
<path d="M32 18.3269C31.6811 17.6475 31.0957 17.1151 30.349 16.8526C29.1668 16.4375 28.1002 17.0555 27.3191 17.9453C27.3191 17.9453 31.0327 18.2887 31.6716 21.4347C31.6639 21.3947 31.9494 21.0354 31.9771 20.9796C32.2034 20.5319 32.2712 19.9995 32.2655 19.5034C32.2617 19.0827 32.1681 18.6843 32 18.3269Z" fill="url(#paint7_linear_435_162)"/>
<path d="M30.9638 17.1961C30.9638 17.1961 27.488 18.1008 27.3199 21.7186C27.3199 21.7186 25.7367 20.0898 27.0048 18.0496C28.2729 16.0094 30.6831 16.8573 30.9638 17.1961Z" fill="url(#paint8_linear_435_162)"/>
<path d="M26.4748 19.7314C26.4748 19.7314 29.1581 22.0592 32.0963 19.8691C32.1555 19.8254 32.2147 19.7798 32.2739 19.7314C32.2739 19.7314 32.5308 22.3803 29.4493 22.7275C29.4484 22.7275 26.2466 22.209 26.4748 19.7314Z" fill="url(#paint9_linear_435_162)"/>
<path d="M28.1047 22.3962C28.1047 22.3962 30.7957 21.4356 30.9637 17.196C30.9637 17.196 33.3185 18.7225 31.805 21.1527C31.804 21.1527 31.0191 23.3576 28.1047 22.3962Z" fill="url(#paint10_linear_435_162)"/>
<path d="M39.7328 16.0298C37.971 16.0195 36.2092 16.0102 34.4474 16C34.097 16.6915 33.7456 17.3822 33.3951 18.0737L34.0874 17.8866L34.4646 19.307L33.5336 19.5583C33.545 19.6839 33.5508 19.8114 33.5508 19.9399C33.5508 20.1968 33.5278 20.4481 33.4858 20.6919L34.3911 21.0242L33.8926 22.4064L32.9874 22.0741C32.7983 22.4045 32.5672 22.707 32.3017 22.9741C32.3896 23.1808 32.4765 23.3874 32.5643 23.5949C32.2158 23.8472 31.8673 24.0994 31.5187 24.3516C31.3812 24.1739 31.2447 23.9961 31.1081 23.8192C30.8742 23.93 30.6287 24.0184 30.3738 24.0845C30.2611 24.3098 30.1475 24.5341 30.0348 24.7593C29.9727 24.8831 29.9097 25.0069 29.8476 25.1316C29.5965 25.6314 29.3444 26.1322 29.0932 26.632L27.9101 23.9849C27.6533 23.8946 27.4069 23.7811 27.1748 23.6452L26.5551 24.3898L25.4379 23.4442L26.0576 22.6996C25.816 22.411 25.6117 22.0899 25.4522 21.7427L24.5221 21.994L24.1449 20.5737L25.076 20.3224C25.0645 20.1968 25.0588 20.0692 25.0588 19.9408C25.0588 19.6839 25.0817 19.4326 25.1237 19.1888L24.2175 18.8565L24.716 17.4743L25.054 17.5981C24.82 17.075 24.5851 16.5519 24.3512 16.0298C22.5894 16.0298 20.8276 16.0298 19.0658 16.0298C17.3775 24.2381 15.6892 32.4473 14 40.6556C16.4598 40.6556 18.9206 40.6556 21.3805 40.6556C21.7729 36.8014 22.1664 32.9471 22.5588 29.0929C24.2891 31.551 26.0185 34.0082 27.7487 36.4663C28.4983 37.532 29.2479 38.5968 29.9985 39.6625C30.5514 38.6675 31.1052 37.6735 31.6581 36.6785C32.296 35.5318 32.9339 34.3851 33.5718 33.2385C34.2793 31.9661 34.9869 30.6947 35.6945 29.4224C36.6351 33.272 37.5747 37.1206 38.5153 40.9702C40.9102 40.9805 43.3061 40.9898 45.701 41C43.711 32.6763 41.7219 24.3535 39.7328 16.0298Z" fill="url(#paint11_linear_435_162)"/>
<path d="M35.6943 29.4215C35.6943 29.4215 41.1707 21.0308 42.6184 28.3279C43.6363 32.5516 44.6533 36.7754 45.6712 41C43.2763 41 40.8804 41 38.4855 41C37.5545 37.1402 36.6244 33.2813 35.6943 29.4215Z" fill="url(#paint12_linear_435_162)"/>
<path d="M22.5588 29.0929C22.5588 29.0929 17.5016 28.6341 15.0962 35.2508L14 40.6557H21.3805L22.5588 29.0929Z" fill="url(#paint13_linear_435_162)"/>
<defs>
<filter id="filter0_d_435_162" x="0" y="0" width="107" height="66" filterUnits="userSpaceOnUse" color-interpolation-filters="sRGB">
<feFlood flood-opacity="0" result="BackgroundImageFix"/>
<feColorMatrix in="SourceAlpha" type="matrix" values="0 0 0 0 0 0 0 0 0 0 0 0 0 0 0 0 0 0 127 0" result="hardAlpha"/>
<feOffset dy="4"/>
<feGaussianBlur stdDeviation="2"/>
<feComposite in2="hardAlpha" operator="out"/>
<feColorMatrix type="matrix" values="0 0 0 0 0.0629423 0 0 0 0 0.516667 0 0 0 0 0.0107639 0 0 0 1 0"/>
<feBlend mode="normal" in2="BackgroundImageFix" result="effect1_dropShadow_435_162"/>
<feBlend mode="normal" in="SourceGraphic" in2="effect1_dropShadow_435_162" result="shape"/>
</filter>
<linearGradient id="paint0_linear_435_162" x1="84.7061" y1="24.4983" x2="84.9395" y2="36.8307" gradientUnits="userSpaceOnUse">
<stop stop-color="#6FC171"/>
<stop offset="1" stop-color="#08974A"/>
</linearGradient>
<linearGradient id="paint1_linear_435_162" x1="92.6895" y1="32.2725" x2="84.2881" y2="31.6979" gradientUnits="userSpaceOnUse">
<stop stop-color="#6FC171"/>
<stop offset="1" stop-color="#08974A"/>
</linearGradient>
<linearGradient id="paint2_linear_435_162" x1="68.5415" y1="24.8154" x2="68.7749" y2="37.1506" gradientUnits="userSpaceOnUse">
<stop stop-color="#6FC171"/>
<stop offset="1" stop-color="#08974A"/>
</linearGradient>
<linearGradient id="paint3_linear_435_162" x1="76.233" y1="45.4994" x2="65.2841" y2="29.9181" gradientUnits="userSpaceOnUse">
<stop stop-color="#6FC171"/>
<stop offset="1" stop-color="#08974A"/>
</linearGradient>
<linearGradient id="paint4_linear_435_162" x1="53.403" y1="25.1118" x2="53.6364" y2="37.4468" gradientUnits="userSpaceOnUse">
<stop stop-color="#6FC171"/>
<stop offset="1" stop-color="#08974A"/>
</linearGradient>
<linearGradient id="paint5_linear_435_162" x1="55.5763" y1="39.0551" x2="49.2265" y2="26.2069" gradientUnits="userSpaceOnUse">
<stop stop-color="#6FC171"/>
<stop offset="1" stop-color="#08974A"/>
</linearGradient>
<linearGradient id="paint6_linear_435_162" x1="26.4746" y1="20.3371" x2="32.2736" y2="20.3371" gradientUnits="userSpaceOnUse">
<stop stop-color="#F8EB32"/>
<stop offset="1" stop-color="#FEDD10"/>
</linearGradient>
<linearGradient id="paint7_linear_435_162" x1="27.3197" y1="19.078" x2="32.2668" y2="19.078" gradientUnits="userSpaceOnUse">
<stop stop-color="#6FC171"/>
<stop offset="1" stop-color="#08974A"/>
</linearGradient>
<linearGradient id="paint8_linear_435_162" x1="26.5126" y1="19.2243" x2="30.9635" y2="19.2243" gradientUnits="userSpaceOnUse">
<stop stop-color="#6FC171"/>
<stop offset="1" stop-color="#08974A"/>
</linearGradient>
<linearGradient id="paint9_linear_435_162" x1="30.9353" y1="21.2447" x2="26.624" y2="20.3256" gradientUnits="userSpaceOnUse">
<stop stop-color="#6FC171"/>
<stop offset="1" stop-color="#08974A"/>
</linearGradient>
<linearGradient id="paint10_linear_435_162" x1="31.532" y1="20.2206" x2="28.8608" y2="19.6512" gradientUnits="userSpaceOnUse">
<stop stop-color="#6FC171"/>
<stop offset="1" stop-color="#08974A"/>
</linearGradient>
<linearGradient id="paint11_linear_435_162" x1="20.4511" y1="18.3845" x2="35.0711" y2="42.2724" gradientUnits="userSpaceOnUse">
<stop stop-color="#6FC171"/>
<stop offset="1" stop-color="#08974A"/>
</linearGradient>
<linearGradient id="paint12_linear_435_162" x1="38.6877" y1="31.2991" x2="45.4958" y2="42.423" gradientUnits="userSpaceOnUse">
<stop stop-color="#6FC171"/>
<stop offset="1" stop-color="#08974A"/>
</linearGradient>
<linearGradient id="paint13_linear_435_162" x1="17.8207" y1="32.8821" x2="20.3944" y2="44.6443" gradientUnits="userSpaceOnUse">
<stop stop-color="#6FC171"/>
<stop offset="1" stop-color="#08974A"/>
</linearGradient>
</defs>
</svg>
