<svg width="179" height="108" viewBox="0 0 179 108" fill="none" xmlns="http://www.w3.org/2000/svg">
<g filter="url(#filter0_d_427_276)">
<rect x="4" width="171" height="100" rx="28" fill="white"/>
</g>
<path d="M133.897 71.9639V29.687C136.858 29.687 140.195 29.4695 143.906 29.0363V46.1021C146.062 41.9937 149.106 39.9386 153.037 39.9386C157.68 39.9386 160.002 42.2917 160.002 46.9995V71.9639H149.993V48.2395C149.993 46.443 149.462 45.5456 148.402 45.5456C147.304 45.5456 146.281 46.6964 145.331 48.9981C144.38 51.3016 143.906 53.7728 143.906 56.417V71.9656H133.897V71.9639Z" fill="url(#paint0_linear_427_276)"/>
<path d="M146.496 46.5012C146.496 46.5012 150.448 38.5685 155.939 40.7726C155.939 40.7726 160 41.6889 160 47.3318V72.2962H149.748V47.8507C149.748 47.8507 149.212 44.3262 146.496 46.5012Z" fill="url(#paint1_linear_427_276)"/>
<path d="M128.769 48.7652L123.916 49.7259C123.916 45.0592 121.996 42.7266 118.157 42.7266C115.8 42.7266 114.621 43.821 114.621 46.0096C114.621 47.6195 116.649 49.3543 120.708 51.2125C126.923 54.0828 130.031 57.7271 130.031 62.1456C130.031 69.186 126.074 72.7071 118.159 72.7071C109.786 72.7071 105.601 69.186 105.601 62.1456L110.756 60.9691C110.684 61.6507 110.648 62.2912 110.648 62.8889C110.648 64.7059 111.32 66.2849 112.663 67.6276C114.005 68.9703 115.593 69.6416 117.42 69.6416C119.833 69.6416 121.039 68.4856 121.039 66.1719C121.039 64.6237 119.093 62.9094 115.2 61.0307C109.331 58.181 106.398 54.5263 106.398 50.0668C106.398 47.1143 107.521 44.6944 109.771 42.8037C112.02 40.913 114.907 39.9694 118.435 39.9694C124.702 39.9711 128.147 42.9013 128.769 48.7652Z" fill="url(#paint2_linear_427_276)"/>
<path d="M114.876 43.9666C114.876 43.9666 106.944 48.4295 109.517 57.1877C109.517 57.1877 112.33 59.7908 114.743 60.7824C117.154 61.774 118.923 63.1372 118.923 63.1372C118.923 63.1372 121.013 64.6665 121.013 66.0298C121.013 67.393 121.094 68.3435 119.326 69.3762C119.326 69.3762 116.23 70.3266 113.738 68.549C111.246 66.7713 110.763 64.3754 110.763 64.3754C110.763 64.3754 110.465 62.0617 110.755 60.9674L105.6 62.1439C105.6 62.1439 105.255 68.3418 110.119 70.9449C110.119 70.9449 113.052 73.3408 121.253 72.4742C121.253 72.4742 128.809 72.0615 129.814 64.6648C129.814 64.6648 131.501 59.1281 126.398 54.8312C126.398 54.8312 124.066 52.4764 119.684 50.7415C115.303 49.0084 113.924 46.3642 114.876 43.9666Z" fill="url(#paint3_linear_427_276)"/>
<path d="M98.9365 60.5358L102.966 61.8682C102.546 69.0748 98.7796 72.6781 91.67 72.6781C82.4576 72.6781 77.8506 67.4855 77.8506 57.0987C77.8506 52.0603 79.076 47.9312 81.5252 44.7099C83.9743 41.4885 87.1095 39.8787 90.9289 39.8787C98.9175 39.8787 102.911 45.7014 102.911 57.347H88.3246C88.3246 65.5246 90.1619 69.6125 93.8365 69.6125C97.2732 69.6125 98.9916 67.3006 98.9916 62.6749C98.9916 62.0532 98.9727 61.3408 98.9365 60.5358ZM88.297 53.8465H94.2743C94.2743 46.5783 93.3056 42.9442 91.3684 42.9442C89.6138 42.9442 88.6262 45.6381 88.4073 51.0276L88.297 53.8465Z" fill="url(#paint4_linear_427_276)"/>
<path d="M90.2221 43.3055C90.2221 43.3055 81.7406 45.9087 77.9229 54.7507C77.8436 55.7286 77.8074 56.8076 77.8419 57.9738C77.8988 59.82 78.1246 61.4606 78.4038 62.8495C78.5124 63.3239 78.6313 63.7384 78.745 64.0895C78.926 64.6478 79.0984 65.0622 79.1673 65.2249C79.2931 65.5229 79.3983 65.7387 79.4896 65.9271C79.6844 66.3295 79.8895 66.7525 80.1928 67.2492C80.391 67.5729 80.6737 67.9976 81.0563 68.4685C81.2338 68.71 81.4855 69.0234 81.8199 69.3574C82.1904 69.7256 82.5024 69.9585 82.804 70.1845C83.2659 70.5288 83.6744 70.7805 83.9691 70.9484C84.4121 71.2018 84.7619 71.3611 84.8533 71.4022C85.1877 71.5529 85.4272 71.6402 85.8581 71.7944C86.3287 71.9639 86.5631 72.0478 86.8836 72.1249C86.9888 72.1506 87.1956 72.19 87.6075 72.2688C88.0143 72.3475 88.2159 72.3869 88.3711 72.4126C88.8502 72.4965 89.2104 72.5291 89.7585 72.577C90.4893 72.6421 90.8547 72.6746 91.3459 72.6798C91.8854 72.6866 92.2956 72.6524 93.1143 72.5976C93.9502 72.5411 94.2432 72.4965 94.481 72.4537C94.7172 72.4092 95.0136 72.3356 95.6065 72.1848C96.1115 72.0564 96.37 71.9913 96.5907 71.916C96.7268 71.8697 97.1232 71.731 97.6162 71.4827C98.0057 71.2857 98.2763 71.1128 98.6606 70.8627C99.0122 70.635 99.3001 70.4329 99.5052 70.2839C99.8775 69.9551 100.279 69.5458 100.67 69.044C101.603 67.8486 102.072 66.6378 102.318 65.7798C102.318 65.7798 102.845 64.3121 102.964 61.8648L98.9347 60.5324C98.9743 61.0188 98.9985 61.536 99.0036 62.0823C99.0105 62.9746 98.9623 63.7983 98.883 64.5399C98.8761 64.7505 98.7296 67.7184 96.4114 69.044C95.3842 69.6314 94.3707 69.6451 93.8347 69.6074C93.8347 69.6074 91.3063 69.7461 89.9395 67.018C88.5727 64.2915 88.1953 58.6965 88.3228 57.3419C88.3228 57.3419 88.6934 54.2935 91.4665 53.963L88.2952 53.8431C88.2969 53.8465 88.2125 44.4632 90.2221 43.3055Z" fill="url(#paint5_linear_427_276)"/>
<path d="M42.4729 30.7711C41.8714 31.6462 41.5164 32.7132 41.5164 33.8658C41.5164 36.8371 43.8587 39.245 46.749 39.245C49.6394 39.245 51.9817 36.8371 51.9817 33.8658C51.9817 32.6892 51.6095 31.6034 50.9855 30.7163L46.7697 37.9982L42.4729 30.7711Z" fill="url(#paint6_linear_427_276)"/>
<path d="M46.8834 39.3785C49.7457 39.3785 52.0661 36.8981 52.0661 33.8383C52.0661 30.7785 49.7457 28.2981 46.8834 28.2981C44.0211 28.2981 41.7007 30.7785 41.7007 33.8383C41.7007 36.8981 44.0211 39.3785 46.8834 39.3785Z" fill="#08974A"/>
<path d="M51.4889 31.2814C50.9132 30.0313 49.8567 29.0517 48.5089 28.5687C46.3751 27.8049 44.4499 28.942 43.04 30.5793C43.04 30.5793 49.7429 31.2112 50.896 36.9998C50.8822 36.9261 51.3975 36.2651 51.4475 36.1623C51.856 35.3386 51.9784 34.359 51.968 33.4461C51.9611 32.6721 51.7922 31.9391 51.4889 31.2814Z" fill="url(#paint7_linear_427_276)"/>
<path d="M49.6187 29.2007C49.6187 29.2007 43.345 30.8653 43.0417 37.5221C43.0417 37.5221 40.1841 34.5251 42.4729 30.7711C44.7618 27.0171 49.112 28.5773 49.6187 29.2007Z" fill="url(#paint8_linear_427_276)"/>
<path d="M41.5164 33.8657C41.5164 33.8657 46.3595 38.1489 51.6629 34.1192C51.7698 34.0387 51.8766 33.9548 51.9835 33.8657C51.9835 33.8657 52.4471 38.7397 46.8852 39.3785C46.8835 39.3785 41.1045 38.4246 41.5164 33.8657Z" fill="url(#paint9_linear_427_276)"/>
<path d="M44.4585 38.7689C44.4585 38.7689 49.3155 37.0015 49.6188 29.2007C49.6188 29.2007 53.8691 32.0093 51.1372 36.4809C51.1355 36.4809 49.7188 40.538 44.4585 38.7689Z" fill="url(#paint10_linear_427_276)"/>
<path d="M65.4462 27.0548C62.2662 27.036 59.0863 27.0188 55.9063 27C55.2738 28.2724 54.6395 29.5432 54.007 30.8156L55.2566 30.4714L55.9374 33.0848L54.2569 33.5472C54.2776 33.7784 54.2879 34.013 54.2879 34.2494C54.2879 34.722 54.2466 35.1844 54.1707 35.6331L55.8046 36.2445L54.9049 38.7877L53.271 38.1763C52.9298 38.7843 52.5127 39.3409 52.0335 39.8324C52.1921 40.2126 52.3489 40.5928 52.5075 40.9747C51.8784 41.4388 51.2493 41.9029 50.6202 42.367C50.372 42.0399 50.1256 41.7128 49.8791 41.3874C49.4568 41.5912 49.0139 41.7539 48.5537 41.8755C48.3503 42.2899 48.1452 42.7027 47.9418 43.1171C47.8298 43.3449 47.716 43.5727 47.604 43.8022C47.1507 44.7218 46.6957 45.6432 46.2424 46.5628L44.1069 41.6923C43.6433 41.5261 43.1986 41.3172 42.7798 41.0672L41.6612 42.4372L39.6447 40.6972L40.7632 39.3272C40.3272 38.7963 39.9583 38.2054 39.6705 37.5666L37.9918 38.029L37.311 35.4156L38.9914 34.9532C38.9707 34.722 38.9604 34.4874 38.9604 34.2511C38.9604 33.7784 39.0018 33.316 39.0776 32.8673L37.442 32.2559L38.3417 29.7127L38.9518 29.9405C38.5295 28.978 38.1055 28.0156 37.6833 27.0548C34.5033 27.0548 31.3234 27.0548 28.1434 27.0548C25.0962 42.1581 22.049 57.2631 19 72.3663C23.4399 72.3663 27.8814 72.3663 32.3213 72.3663C33.0297 65.2745 33.7398 58.1827 34.4482 51.0909C37.5712 55.6138 40.6926 60.1351 43.8156 64.658C45.1686 66.6189 46.5216 68.5781 47.8763 70.539C48.8743 68.7083 49.8739 66.8792 50.8718 65.0485C52.0232 62.9386 53.1745 60.8287 54.3258 58.7188C55.603 56.3777 56.8801 54.0383 58.1573 51.6972C59.855 58.7804 61.551 65.8619 63.2486 72.9452C67.5713 72.964 71.8957 72.9812 76.2183 73C72.6265 57.6844 69.0363 42.3704 65.4462 27.0548Z" fill="url(#paint11_linear_427_276)"/>
<path d="M58.1572 51.6955C58.1572 51.6955 68.0418 36.2566 70.6547 49.6832C72.492 57.4549 74.3276 65.2266 76.1649 73.0001C71.8422 73.0001 67.5178 73.0001 63.1952 73.0001C61.5147 65.898 59.836 58.7976 58.1572 51.6955Z" fill="url(#paint12_linear_427_276)"/>
<path d="M34.4482 51.0909C34.4482 51.0909 25.3202 50.2466 20.9786 62.4213L19 72.3663H32.3213L34.4482 51.0909Z" fill="url(#paint13_linear_427_276)"/>
<defs>
<filter id="filter0_d_427_276" x="0" y="0" width="179" height="108" filterUnits="userSpaceOnUse" color-interpolation-filters="sRGB">
<feFlood flood-opacity="0" result="BackgroundImageFix"/>
<feColorMatrix in="SourceAlpha" type="matrix" values="0 0 0 0 0 0 0 0 0 0 0 0 0 0 0 0 0 0 127 0" result="hardAlpha"/>
<feOffset dy="4"/>
<feGaussianBlur stdDeviation="2"/>
<feComposite in2="hardAlpha" operator="out"/>
<feColorMatrix type="matrix" values="0 0 0 0 0.0629423 0 0 0 0 0.516667 0 0 0 0 0.0107639 0 0 0 1 0"/>
<feBlend mode="normal" in2="BackgroundImageFix" result="effect1_dropShadow_427_276"/>
<feBlend mode="normal" in="SourceGraphic" in2="effect1_dropShadow_427_276" result="shape"/>
</filter>
<linearGradient id="paint0_linear_427_276" x1="146.62" y1="42.6369" x2="147.058" y2="65.328" gradientUnits="userSpaceOnUse">
<stop stop-color="#6FC171"/>
<stop offset="1" stop-color="#08974A"/>
</linearGradient>
<linearGradient id="paint1_linear_427_276" x1="161.03" y1="56.9414" x2="145.863" y2="55.9239" gradientUnits="userSpaceOnUse">
<stop stop-color="#6FC171"/>
<stop offset="1" stop-color="#08974A"/>
</linearGradient>
<linearGradient id="paint2_linear_427_276" x1="117.444" y1="43.2203" x2="117.882" y2="65.9168" gradientUnits="userSpaceOnUse">
<stop stop-color="#6FC171"/>
<stop offset="1" stop-color="#08974A"/>
</linearGradient>
<linearGradient id="paint3_linear_427_276" x1="131.327" y1="81.2788" x2="111.052" y2="52.9762" gradientUnits="userSpaceOnUse">
<stop stop-color="#6FC171"/>
<stop offset="1" stop-color="#08974A"/>
</linearGradient>
<linearGradient id="paint4_linear_427_276" x1="90.1196" y1="43.7657" x2="90.5575" y2="66.4619" gradientUnits="userSpaceOnUse">
<stop stop-color="#6FC171"/>
<stop offset="1" stop-color="#08974A"/>
</linearGradient>
<linearGradient id="paint5_linear_427_276" x1="94.0427" y1="69.4213" x2="82.2231" y2="45.9613" gradientUnits="userSpaceOnUse">
<stop stop-color="#6FC171"/>
<stop offset="1" stop-color="#08974A"/>
</linearGradient>
<linearGradient id="paint6_linear_427_276" x1="41.5158" y1="34.9803" x2="51.9827" y2="34.9803" gradientUnits="userSpaceOnUse">
<stop stop-color="#F8EB32"/>
<stop offset="1" stop-color="#FEDD10"/>
</linearGradient>
<linearGradient id="paint7_linear_427_276" x1="43.0412" y1="32.6634" x2="51.9704" y2="32.6634" gradientUnits="userSpaceOnUse">
<stop stop-color="#6FC171"/>
<stop offset="1" stop-color="#08974A"/>
</linearGradient>
<linearGradient id="paint8_linear_427_276" x1="41.5845" y1="32.9325" x2="49.6182" y2="32.9325" gradientUnits="userSpaceOnUse">
<stop stop-color="#6FC171"/>
<stop offset="1" stop-color="#08974A"/>
</linearGradient>
<linearGradient id="paint9_linear_427_276" x1="49.5673" y1="36.6502" x2="41.773" y2="35.0202" gradientUnits="userSpaceOnUse">
<stop stop-color="#6FC171"/>
<stop offset="1" stop-color="#08974A"/>
</linearGradient>
<linearGradient id="paint10_linear_427_276" x1="50.6444" y1="34.7659" x2="45.8152" y2="33.756" gradientUnits="userSpaceOnUse">
<stop stop-color="#6FC171"/>
<stop offset="1" stop-color="#08974A"/>
</linearGradient>
<linearGradient id="paint11_linear_427_276" x1="30.6439" y1="31.3874" x2="57.7771" y2="74.8763" gradientUnits="userSpaceOnUse">
<stop stop-color="#6FC171"/>
<stop offset="1" stop-color="#08974A"/>
</linearGradient>
<linearGradient id="paint12_linear_427_276" x1="63.5601" y1="55.1504" x2="76.1952" y2="75.4018" gradientUnits="userSpaceOnUse">
<stop stop-color="#6FC171"/>
<stop offset="1" stop-color="#08974A"/>
</linearGradient>
<linearGradient id="paint13_linear_427_276" x1="25.8961" y1="58.0629" x2="30.7151" y2="79.6667" gradientUnits="userSpaceOnUse">
<stop stop-color="#6FC171"/>
<stop offset="1" stop-color="#08974A"/>
</linearGradient>
</defs>
</svg>
