<svg width="71" height="71" viewBox="0 0 71 71" fill="none" xmlns="http://www.w3.org/2000/svg">
<path d="M70.2755 39.53V30.7456L60.3535 27.4382C59.8572 25.8043 59.2028 24.2407 58.4165 22.7561L63.0987 13.3963L56.8793 7.17689L47.5194 11.859C46.0349 11.0772 44.4712 10.4315 42.8373 9.92203L39.53 0H30.7456L27.4382 9.92203C25.8043 10.4183 24.2407 11.0772 22.7561 11.859L13.3963 7.19446L7.19446 13.3963L11.8766 22.7561C11.0772 24.2407 10.4315 25.8043 9.92203 27.4382L0 30.7456V39.53L9.92203 42.8373C10.414 44.4712 11.0772 46.0349 11.859 47.5194L7.17689 56.8793L13.3963 63.0987L22.7561 58.4165C24.2407 59.1984 25.8043 59.8572 27.4382 60.3535L30.7456 70.2755H39.53L42.8373 60.3535C44.4712 59.8572 46.0349 59.2028 47.5194 58.4165L56.8793 63.0987L63.0987 56.8793L58.4165 47.5194C59.1984 46.0393 59.8572 44.4712 60.3535 42.8373L70.2755 39.53ZM35.1378 48.3144C27.8643 48.3144 21.9611 42.4113 21.9611 35.1378C21.9611 27.8643 27.8643 21.9611 35.1378 21.9611C42.4113 21.9611 48.3144 27.8643 48.3144 35.1378C48.3144 42.4113 42.4113 48.3144 35.1378 48.3144Z" fill="#2C7EB3"/>
</svg>
