<svg width="107" height="66" viewBox="0 0 107 66" fill="none" xmlns="http://www.w3.org/2000/svg">
<g filter="url(#filter0_d_427_277)">
<rect x="4" width="99" height="58" rx="28" fill="white"/>
</g>
<path d="M77.4827 40.7164V17.6155C79.3485 17.6059 81.2144 17.5953 83.0793 17.5857C83.0841 20.5858 83.0889 23.585 83.0937 26.5851C84.3031 24.3398 86.0096 23.2176 88.2124 23.2176C90.8154 23.2176 92.1169 24.5042 92.1169 27.0764V40.7174H86.5058V27.7524C86.5058 26.7707 86.2083 26.2803 85.6142 26.2803C84.9989 26.2803 84.425 26.9091 83.8923 28.1678C83.3596 29.4265 83.0927 30.7766 83.0927 32.2209V40.7164H77.4827Z" fill="#1D76BB"/>
<path d="M84.7712 26.6158C84.7712 26.6158 86.9145 22.281 89.8918 23.4849C89.8918 23.4849 92.0936 23.9859 92.0946 27.0687V40.7096H86.5354V27.3533C86.5344 27.3533 86.2445 25.4263 84.7712 26.6158Z" fill="url(#paint0_linear_427_277)"/>
<path d="M74.6087 27.3177L71.8877 27.8428C71.8877 25.2927 70.8117 24.0186 68.6598 24.0186C67.3382 24.0186 66.6769 24.6167 66.6769 25.8119C66.6769 26.6917 67.8142 27.6399 70.09 28.6553C73.5741 30.2236 75.3171 32.215 75.3171 34.6296C75.3171 38.4768 73.098 40.4009 68.6608 40.4009C63.9673 40.4009 61.6206 38.4778 61.6206 34.6296L64.5106 33.9863C64.4693 34.3584 64.4492 34.7084 64.4492 35.0353C64.4492 36.0286 64.8254 36.8912 65.5789 37.6249C66.3323 38.3585 67.2211 38.7249 68.2462 38.7249C69.5985 38.7249 70.2752 38.0931 70.2752 36.8296C70.2752 35.9834 69.1839 35.0469 67.0013 34.0199C63.712 32.4631 62.0669 30.4659 62.0669 28.0283C62.0669 26.4148 62.6975 25.0917 63.9577 24.0599C65.218 23.0281 66.8372 22.5118 68.8153 22.5118C72.3282 22.5118 74.2603 24.1138 74.6087 27.3177Z" fill="#1D76BB"/>
<path d="M66.9381 24.5686C66.9381 24.5686 63.1527 27.4129 63.7832 31.6573C63.7832 31.6573 63.7948 31.8266 63.8562 31.9506C63.8562 31.9506 64.8141 32.8257 65.5743 33.2487C65.5743 33.2487 66.1885 33.6103 66.2893 33.6661C66.3911 33.7228 67.7319 34.3776 67.7319 34.3776C67.7319 34.3776 68.4249 34.7671 68.4873 34.8065C68.5497 34.8459 69.5239 35.4613 69.6534 35.67C69.6534 35.67 69.975 36.0027 70.0201 36.1104C70.0201 36.1104 70.3867 36.5393 70.2514 37.2277C70.2514 37.2277 70.1612 37.8201 69.902 38.1143C69.6429 38.4076 69.1975 38.7692 67.9978 38.724C66.798 38.6788 65.9025 37.923 65.9025 37.923C65.9025 37.923 64.7536 36.9412 64.6855 36.3258C64.6855 36.3258 64.3246 35.445 64.4484 34.7738L64.5079 33.9863L61.6179 34.6296C61.6179 34.6296 61.6486 35.57 61.7158 35.8969C61.783 36.2239 61.8848 36.8393 62.1381 37.3364C62.3915 37.8335 62.4309 37.923 62.6958 38.2624C62.6958 38.2624 63.1517 38.8038 63.3437 38.9288C63.5356 39.0528 63.6479 39.1663 63.8955 39.324C64.1432 39.4817 64.5828 39.6855 64.5828 39.6855C64.5828 39.6855 65.653 40.1375 66.4592 40.2327C67.2645 40.3288 68.1379 40.4298 68.8136 40.3961C69.4893 40.3625 70.0018 40.3683 70.4472 40.2779C70.8925 40.1875 71.861 40.0577 72.6672 39.6067C73.4725 39.1547 73.8612 38.8672 74.369 38.1451C74.8758 37.4229 75.0735 36.5758 75.0735 36.5758C75.0735 36.5758 75.3777 35.4527 75.3048 34.4421C75.2318 33.4314 74.9554 32.8218 74.9554 32.8218C74.9554 32.8218 74.488 31.8227 74.0993 31.4448C74.0993 31.4448 73.1471 30.3159 72.4714 29.9832C72.4714 29.9832 71.6114 29.4467 71.1603 29.2063C70.7092 28.9659 69.568 28.4236 69.568 28.4236L68.471 27.837C68.471 27.837 67.1944 27.1745 66.6982 26.136C66.6982 26.134 66.608 24.9898 66.9381 24.5686Z" fill="url(#paint1_linear_427_277)"/>
<path d="M61.4799 39.3846C60.1064 39.9711 58.7694 40.2644 57.4679 40.2644C55.5406 40.2644 54.3523 39.6048 53.9012 38.2845C52.9683 39.6605 51.6265 40.349 49.8739 40.349C46.6048 40.349 44.9702 38.6797 44.9702 35.3392C44.9702 32.8007 46.4666 31.0179 49.4592 29.9909C52.2053 29.0438 53.5787 27.9034 53.5787 26.5725C53.5787 24.8244 52.7898 23.9494 51.2118 23.9494C49.3873 23.9494 48.4754 24.7955 48.4754 26.4879C48.4754 27.0187 48.6184 27.7178 48.9054 28.5861L46.1229 27.9937C46.051 27.4639 46.0154 26.9668 46.0154 26.5043C46.0154 23.7965 48.2595 22.4426 52.7485 22.4426C57.012 22.4426 59.1437 23.7061 59.1437 26.2331V36.5902C59.1437 37.6508 59.4566 38.1807 60.0814 38.1807C60.2763 38.1807 60.5633 38.0624 60.9424 37.8249L61.4799 39.3846ZM53.5327 29.738C53.1843 30.1775 52.7792 30.5448 52.3185 30.8381C51.16 31.5823 50.5813 32.8353 50.5813 34.595C50.5813 36.8518 50.9805 37.9797 51.7801 37.9797C52.9481 37.9797 53.5327 36.8633 53.5327 34.6286V29.738Z" fill="#1D76BB"/>
<path d="M52.6966 30.4832C52.6966 30.4832 46.9329 31.4804 44.9701 35.3392C44.9701 35.3392 44.9 38.8816 47.0635 39.7393C47.0635 39.7393 49.6329 41.1846 52.2915 39.6941C52.2915 39.6941 53.3281 38.1143 53.4635 36.5786C53.4635 36.5786 52.9 37.7075 52.3817 37.8883C51.8635 38.0691 51.0294 38.0691 50.8269 37.0306C50.6243 35.9921 50.3086 33.9603 50.9622 32.4246C51.6149 30.89 52.6966 30.4832 52.6966 30.4832Z" fill="url(#paint2_linear_427_277)"/>
<path d="M38.4396 16L35.5189 27.0841C34.8086 26.0283 34.0984 24.9734 33.3872 23.9176C32.7316 22.9435 32.3659 22.3108 31.7104 21.4262C30.6671 20.0184 30.0816 19.229 29.593 19.0213C29.5259 18.9924 29.4606 18.9751 29.3953 18.9684C29.3953 18.9684 27.6341 20.229 25.3315 23.5041C24.1461 25.1907 23.1441 26.5389 22.4885 27.4072L21.3205 16.0135H14C15.4359 24.2234 16.8727 32.4333 18.3086 40.6433C20.2311 40.6433 22.1545 40.6433 24.077 40.6433C24.2901 40.6356 24.5032 40.6279 24.7153 40.6202C24.5627 40.3096 24.4734 39.9413 24.4734 39.5471V35.2248H24.3045C24.0079 35.2248 23.7651 34.9815 23.7651 34.6844C23.7651 34.4142 23.9666 34.1911 24.2258 34.1517C24.3966 31.7218 26.4871 29.9092 28.7551 30.0467C30.8187 30.1717 32.5704 31.8833 32.7508 34.0805C32.8065 34.068 33.3094 33.9613 33.6175 34.2709C33.6694 34.3228 33.8162 34.4709 33.8104 34.6834C33.8056 34.8603 33.6972 34.9815 33.6617 35.0209C33.5158 35.1834 33.3277 35.2161 33.271 35.2238C33.0762 35.2238 32.8813 35.2238 32.6865 35.2238V39.5461C32.6865 39.9077 32.6107 40.2471 32.4811 40.5404C33.1242 40.5558 33.7663 40.5702 34.4094 40.5856L39.5107 40.4596L45.3646 16H38.4396Z" fill="url(#paint3_linear_427_277)"/>
<path d="M33.7749 35.1805H23.7113C23.6412 35.1805 23.5846 35.1237 23.5846 35.0535V34.3122C23.5846 34.242 23.6412 34.1852 23.7113 34.1852H33.7739C33.844 34.1852 33.9006 34.242 33.9006 34.3122V35.0535C33.9006 35.1237 33.844 35.1805 33.7749 35.1805Z" stroke="url(#paint4_linear_427_277)" stroke-miterlimit="10"/>
<path d="M31.5943 34.1016C31.4167 34.1016 31.098 34.468 30.9963 34.5815C30.8187 34.7805 30.6805 35.0065 30.5893 35.2469C30.3839 35.7873 30.3475 36.3757 30.3647 36.9421C30.3772 37.3729 30.3964 37.8047 30.3561 38.2345C30.3148 38.6778 30.3196 38.896 29.7994 38.9489C29.5499 38.9739 29.3166 38.9066 29.1861 38.7028C28.9701 38.3672 29.0114 37.845 29.0037 37.4729C28.9951 37.02 29.237 36.3959 28.903 35.9969C28.7504 35.8152 28.4403 35.7276 28.233 35.8584C28.0487 35.9748 28.0103 36.2007 27.9787 36.4008C27.9508 36.5758 27.9163 36.7498 27.874 36.9219C27.8529 37.0114 27.8232 37.1085 27.7387 37.1604C27.6581 37.2094 27.5468 37.1998 27.4623 37.1575C27.3778 37.1152 27.3145 37.046 27.2588 36.9738C26.8739 36.4796 26.7722 35.8709 26.7463 35.2815C26.7424 35.1892 26.6925 34.1112 26.7626 34.1112C28.3722 34.1074 29.9837 34.1045 31.5943 34.1016Z" fill="#67A0D6"/>
<path d="M30.0153 37.3854C30.0153 37.3854 30.2697 38.3836 29.8301 38.4672C29.3924 38.5499 29.4135 38.1787 29.4135 38.1759C29.4116 38.2105 29.2331 38.2884 29.2216 38.3749C29.1908 38.6143 29.5824 38.8057 29.8022 38.7566C30.43 38.6153 30.2937 37.722 30.0153 37.3854Z" fill="#9BC7E8"/>
<path d="M27.4921 36.7815C27.4921 36.7815 27.0525 36.719 27.0525 35.9699C27.0525 35.9699 27.2147 35.7622 27.2377 35.9699C27.2608 36.1776 27.2608 36.4901 27.5621 36.6767C27.5621 36.6777 27.7474 36.8854 27.4921 36.7815Z" fill="#9BC7E8"/>
<path d="M26.8269 30.3929C26.8269 30.3929 19.7512 32.1535 17.7077 37.4518L14 16.0135H21.3205L22.4895 27.4091C23.4896 25.9331 24.5972 24.3974 25.82 22.8233C27.0179 21.2819 28.2071 19.8588 29.3656 18.5491C30.1996 19.5444 31.0443 20.6069 31.8899 21.7396C33.2634 23.5811 34.466 25.3754 35.5189 27.085C36.4921 23.3897 37.4664 19.6953 38.4396 16H45.3646L40.0626 37.9335C40.0626 37.9335 36.4566 31.3112 30.0873 30.2275C30.0864 30.2275 27.2924 29.9573 26.8269 30.3929Z" fill="url(#paint5_linear_427_277)"/>
<defs>
<filter id="filter0_d_427_277" x="0" y="0" width="107" height="66" filterUnits="userSpaceOnUse" color-interpolation-filters="sRGB">
<feFlood flood-opacity="0" result="BackgroundImageFix"/>
<feColorMatrix in="SourceAlpha" type="matrix" values="0 0 0 0 0 0 0 0 0 0 0 0 0 0 0 0 0 0 127 0" result="hardAlpha"/>
<feOffset dy="4"/>
<feGaussianBlur stdDeviation="2"/>
<feComposite in2="hardAlpha" operator="out"/>
<feColorMatrix type="matrix" values="0 0 0 0 0.025 0 0 0 0 0.415 0 0 0 0 1 0 0 0 1 0"/>
<feBlend mode="normal" in2="BackgroundImageFix" result="effect1_dropShadow_427_277"/>
<feBlend mode="normal" in="SourceGraphic" in2="effect1_dropShadow_427_277" result="shape"/>
</filter>
<linearGradient id="paint0_linear_427_277" x1="92.6522" y1="32.3203" x2="84.4276" y2="31.7731" gradientUnits="userSpaceOnUse">
<stop stop-color="#3789B9"/>
<stop offset="0.3602" stop-color="#3789B9"/>
<stop offset="0.5753" stop-color="#1D76BB"/>
<stop offset="1" stop-color="#2A3B8F"/>
</linearGradient>
<linearGradient id="paint1_linear_427_277" x1="73.8488" y1="42.5299" x2="63.2466" y2="27.6179" gradientUnits="userSpaceOnUse">
<stop stop-color="#3789B9"/>
<stop offset="0.3602" stop-color="#3789B9"/>
<stop offset="0.5753" stop-color="#1D76BB"/>
<stop offset="1" stop-color="#2A3B8F"/>
</linearGradient>
<linearGradient id="paint2_linear_427_277" x1="51.958" y1="40.4329" x2="47.1592" y2="30.1589" gradientUnits="userSpaceOnUse">
<stop offset="0.3602" stop-color="#3789B9"/>
<stop offset="0.5753" stop-color="#1D76BB"/>
<stop offset="1" stop-color="#2A3B8F"/>
</linearGradient>
<linearGradient id="paint3_linear_427_277" x1="29.719" y1="18.4606" x2="30.1143" y2="44.5544" gradientUnits="userSpaceOnUse">
<stop stop-color="#3789B9"/>
<stop offset="0.3602" stop-color="#3789B9"/>
<stop offset="0.5753" stop-color="#1D76BB"/>
<stop offset="1" stop-color="#2A3B8F"/>
</linearGradient>
<linearGradient id="paint4_linear_427_277" x1="23.5369" y1="34.6826" x2="33.949" y2="34.6826" gradientUnits="userSpaceOnUse">
<stop stop-color="#3789B9"/>
<stop offset="0.3602" stop-color="#3789B9"/>
<stop offset="0.5753" stop-color="#1D76BB"/>
<stop offset="1" stop-color="#2A3B8F"/>
</linearGradient>
<linearGradient id="paint5_linear_427_277" x1="37.3426" y1="39.204" x2="24.2702" y2="11.2162" gradientUnits="userSpaceOnUse">
<stop offset="0.3602" stop-color="#3789B9"/>
<stop offset="0.5753" stop-color="#1D76BB"/>
<stop offset="1" stop-color="#2A3B8F"/>
</linearGradient>
</defs>
</svg>
