<svg width="179" height="108" viewBox="0 0 179 108" fill="none" xmlns="http://www.w3.org/2000/svg">
<g filter="url(#filter0_d_427_275)">
<rect x="4" width="171" height="100" rx="28" fill="white"/>
</g>
<path d="M134.211 72.2455V29.9573C137.626 29.9397 141.042 29.9203 144.456 29.9027C144.465 35.3947 144.473 40.8849 144.482 46.3769C146.696 42.2667 149.82 40.2125 153.852 40.2125C158.617 40.2125 161 42.5677 161 47.2764V72.2473H150.728V48.5138C150.728 46.7166 150.184 45.8189 149.096 45.8189C147.97 45.8189 146.919 46.9701 145.944 49.2743C144.969 51.5784 144.48 54.0498 144.48 56.6937V72.2455H134.211Z" fill="#1D76BB"/>
<path d="M147.553 46.4333C147.553 46.4333 151.477 38.498 156.927 40.7019C156.927 40.7019 160.958 41.619 160.959 47.2623V72.2332H150.783V47.7834C150.781 47.7834 150.25 44.2558 147.553 46.4333Z" fill="url(#paint0_linear_427_275)"/>
<path d="M128.949 47.7181L123.968 48.6792C123.968 44.0111 121.998 41.6787 118.059 41.6787C115.639 41.6787 114.429 42.7736 114.429 44.9616C114.429 46.5722 116.511 48.3078 120.677 50.1666C127.055 53.0376 130.245 56.6831 130.245 61.1031C130.245 68.1458 126.183 71.6681 118.061 71.6681C109.469 71.6681 105.173 68.1476 105.173 61.1031L110.463 59.9255C110.388 60.6067 110.351 61.2474 110.351 61.8459C110.351 63.6642 111.04 65.2432 112.419 66.5863C113.798 67.9293 115.425 68.6 117.302 68.6C119.777 68.6 121.016 67.4435 121.016 65.1305C121.016 63.5815 119.018 61.867 115.023 59.9871C109.001 57.1372 105.99 53.4812 105.99 49.019C105.99 46.0653 107.144 43.6432 109.451 41.7544C111.758 39.8657 114.722 38.9204 118.343 38.9204C124.774 38.9204 128.311 41.853 128.949 47.7181Z" fill="#1D76BB"/>
<path d="M114.908 42.6855C114.908 42.6855 107.979 47.8924 109.133 55.6621C109.133 55.6621 109.154 55.9719 109.266 56.199C109.266 56.199 111.02 57.8008 112.411 58.5753C112.411 58.5753 113.536 59.2372 113.72 59.3393C113.907 59.4431 116.361 60.6419 116.361 60.6419C116.361 60.6419 117.63 61.3548 117.744 61.4269C117.858 61.4991 119.642 62.6257 119.879 63.0076C119.879 63.0076 120.467 63.6167 120.55 63.8138C120.55 63.8138 121.221 64.5989 120.973 65.8592C120.973 65.8592 120.808 66.9436 120.334 67.4822C119.859 68.0191 119.044 68.6809 116.848 68.5982C114.652 68.5155 113.012 67.1319 113.012 67.1319C113.012 67.1319 110.909 65.3347 110.784 64.2081C110.784 64.2081 110.124 62.5957 110.351 61.3671L110.459 59.9254L105.169 61.103C105.169 61.103 105.225 62.8246 105.348 63.4231C105.471 64.0215 105.658 65.1481 106.121 66.0582C106.585 66.9682 106.657 67.1319 107.142 67.7533C107.142 67.7533 107.977 68.7443 108.328 68.9731C108.68 69.2002 108.885 69.4079 109.338 69.6966C109.792 69.9853 110.596 70.3584 110.596 70.3584C110.596 70.3584 112.556 71.1858 114.031 71.36C115.506 71.5361 117.104 71.7209 118.341 71.6593C119.578 71.5977 120.517 71.6082 121.332 71.4428C122.147 71.2773 123.92 71.0397 125.396 70.2141C126.87 69.3868 127.582 68.8605 128.511 67.5385C129.439 66.2166 129.801 64.6658 129.801 64.6658C129.801 64.6658 130.358 62.6098 130.224 60.7598C130.091 58.9098 129.585 57.7938 129.585 57.7938C129.585 57.7938 128.729 55.9649 128.017 55.2731C128.017 55.2731 126.274 53.2066 125.037 52.5975C125.037 52.5975 123.463 51.6153 122.637 51.1752C121.812 50.7352 119.722 49.7424 119.722 49.7424L117.714 48.6686C117.714 48.6686 115.377 47.4558 114.469 45.5548C114.469 45.5512 114.304 43.4565 114.908 42.6855Z" fill="url(#paint1_linear_427_275)"/>
<path d="M104.916 69.8076C102.402 70.8813 99.9545 71.4182 97.572 71.4182C94.0439 71.4182 91.8687 70.2107 91.0429 67.7938C89.3351 70.3127 86.8788 71.5731 83.6704 71.5731C77.686 71.5731 74.6938 68.5173 74.6938 62.4022C74.6938 57.7551 77.433 54.4916 82.9114 52.6117C87.9382 50.8778 90.4525 48.7902 90.4525 46.354C90.4525 43.1538 89.0083 41.552 86.1197 41.552C82.7796 41.552 81.1105 43.101 81.1105 46.1991C81.1105 47.1707 81.3723 48.4504 81.8976 50.0399L76.804 48.9556C76.6722 47.9857 76.6072 47.0757 76.6072 46.229C76.6072 41.2721 80.7151 38.7937 88.9327 38.7937C96.7374 38.7937 100.64 41.1067 100.64 45.7326V64.6923C100.64 66.6338 101.212 67.6037 102.356 67.6037C102.713 67.6037 103.238 67.3872 103.932 66.9524L104.916 69.8076ZM90.3682 52.1487C89.7304 52.9532 88.9889 53.6256 88.1456 54.1624C86.0248 55.5249 84.9654 57.8185 84.9654 61.0397C84.9654 65.1711 85.6963 67.2358 87.1599 67.2358C89.2982 67.2358 90.3682 65.1922 90.3682 61.1014V52.1487Z" fill="#1D76BB"/>
<path d="M88.8377 53.5129C88.8377 53.5129 78.2868 55.3383 74.6937 62.4022C74.6937 62.4022 74.5654 68.887 78.5258 70.4571C78.5258 70.4571 83.2293 73.1028 88.0962 70.3744C88.0962 70.3744 89.9938 67.4823 90.2415 64.6712C90.2415 64.6712 89.2102 66.7377 88.2614 67.0686C87.3126 67.3996 85.7858 67.3996 85.415 65.4985C85.0443 63.5974 84.4662 59.878 85.6628 57.0669C86.8575 54.2575 88.8377 53.5129 88.8377 53.5129Z" fill="url(#paint2_linear_427_275)"/>
<path d="M62.7389 27L57.3923 47.2904C56.0921 45.3577 54.7919 43.4267 53.49 41.4939C52.2899 39.7108 51.6205 38.5525 50.4205 36.9331C48.5106 34.3561 47.4388 32.9109 46.5445 32.5307C46.4215 32.4779 46.302 32.4462 46.1825 32.4339C46.1825 32.4339 42.9584 34.7416 38.7433 40.737C36.5734 43.8245 34.7391 46.2923 33.539 47.8819L31.4008 27.0246H18C20.6285 42.0537 23.2587 57.0827 25.8872 72.1117C29.4065 72.1117 32.9276 72.1117 36.4469 72.1117C36.837 72.0976 37.227 72.0835 37.6153 72.0695C37.336 71.5009 37.1726 70.8267 37.1726 70.105V62.1927H36.8633C36.3204 62.1927 35.8759 61.7473 35.8759 61.2034C35.8759 60.7088 36.2449 60.3004 36.7192 60.2283C37.032 55.7801 40.8588 52.462 45.0106 52.7137C48.7882 52.9426 51.9947 56.0758 52.3251 60.098C52.427 60.0751 53.3476 59.8797 53.9116 60.4465C54.0065 60.5416 54.2753 60.8127 54.2648 61.2017C54.256 61.5256 54.0575 61.7473 53.9925 61.8195C53.7254 62.117 53.381 62.1768 53.2774 62.1909C52.9207 62.1909 52.564 62.1909 52.2073 62.1909V70.1033C52.2073 70.7651 52.0685 71.3865 51.8313 71.9234C53.0085 71.9515 54.184 71.9779 55.3612 72.0061L64.6997 71.7755L75.4158 27H62.7389Z" fill="url(#paint3_linear_427_275)"/>
<path d="M54.1998 62.1118H35.7775C35.6492 62.1118 35.5455 62.0079 35.5455 61.8794V60.5223C35.5455 60.3938 35.6492 60.2899 35.7775 60.2899H54.198C54.3263 60.2899 54.4299 60.3938 54.4299 60.5223V61.8794C54.4299 62.0079 54.3263 62.1118 54.1998 62.1118Z" stroke="url(#paint4_linear_427_275)" stroke-miterlimit="10"/>
<path d="M50.2078 60.1367C49.8828 60.1367 49.2994 60.8074 49.1132 61.0151C48.7882 61.3795 48.5351 61.7931 48.3682 62.2332C47.9922 63.2224 47.9255 64.2997 47.9571 65.3365C47.9799 66.1251 48.0151 66.9154 47.9413 67.7023C47.8657 68.5138 47.8745 68.9133 46.9222 69.0101C46.4654 69.0559 46.0384 68.9327 45.7995 68.5595C45.4041 67.9452 45.4797 66.9894 45.4656 66.3082C45.4498 65.4791 45.8926 64.3367 45.2811 63.6062C45.0018 63.2735 44.4343 63.1133 44.0548 63.3527C43.7174 63.5657 43.6471 63.9793 43.5891 64.3455C43.5382 64.6658 43.4749 64.9844 43.3976 65.2995C43.359 65.4632 43.3045 65.641 43.1499 65.7361C43.0023 65.8258 42.7985 65.8082 42.6439 65.7308C42.4892 65.6533 42.3733 65.5266 42.2714 65.3946C41.5668 64.4898 41.3806 63.3756 41.3331 62.2965C41.3261 62.1276 41.2347 60.1543 41.363 60.1543C44.3095 60.1473 47.2595 60.142 50.2078 60.1367Z" fill="#67A0D6"/>
<path d="M47.3175 66.148C47.3175 66.148 47.7831 67.9752 46.9784 68.1283C46.1772 68.2797 46.2159 67.6002 46.2159 67.5949C46.2123 67.6583 45.8855 67.8009 45.8644 67.9593C45.8082 68.3976 46.5251 68.7479 46.9274 68.6581C48.0765 68.3994 47.827 66.7641 47.3175 66.148Z" fill="#9BC7E8"/>
<path d="M42.6984 65.0426C42.6984 65.0426 41.8937 64.9282 41.8937 63.5569C41.8937 63.5569 42.1906 63.1767 42.2328 63.5569C42.275 63.9371 42.2749 64.5092 42.8267 64.8507C42.8267 64.8525 43.1658 65.2327 42.6984 65.0426Z" fill="#9BC7E8"/>
<path d="M41.4808 53.3474C41.4808 53.3474 28.528 56.5704 24.7874 66.2694L18 27.0246H31.4008L33.5408 47.8854C35.3716 45.1834 37.3992 42.3723 39.6376 39.4907C41.8304 36.6691 44.0073 34.0639 46.1281 31.6664C47.6549 33.4883 49.2011 35.4334 50.749 37.5069C53.2633 40.8778 55.4648 44.1624 57.3923 47.2922C59.1739 40.5275 60.9573 33.7646 62.7389 27H75.4158L65.71 67.1513C65.71 67.1513 59.1089 55.0285 47.4493 53.0447C47.4476 53.0447 42.3329 52.55 41.4808 53.3474Z" fill="url(#paint5_linear_427_275)"/>
<defs>
<filter id="filter0_d_427_275" x="0" y="0" width="179" height="108" filterUnits="userSpaceOnUse" color-interpolation-filters="sRGB">
<feFlood flood-opacity="0" result="BackgroundImageFix"/>
<feColorMatrix in="SourceAlpha" type="matrix" values="0 0 0 0 0 0 0 0 0 0 0 0 0 0 0 0 0 0 127 0" result="hardAlpha"/>
<feOffset dy="4"/>
<feGaussianBlur stdDeviation="2"/>
<feComposite in2="hardAlpha" operator="out"/>
<feColorMatrix type="matrix" values="0 0 0 0 0.025 0 0 0 0 0.415 0 0 0 0 1 0 0 0 1 0"/>
<feBlend mode="normal" in2="BackgroundImageFix" result="effect1_dropShadow_427_275"/>
<feBlend mode="normal" in="SourceGraphic" in2="effect1_dropShadow_427_275" result="shape"/>
</filter>
<linearGradient id="paint0_linear_427_275" x1="161.98" y1="56.8759" x2="146.924" y2="55.8741" gradientUnits="userSpaceOnUse">
<stop stop-color="#3789B9"/>
<stop offset="0.3602" stop-color="#3789B9"/>
<stop offset="0.5753" stop-color="#1D76BB"/>
<stop offset="1" stop-color="#2A3B8F"/>
</linearGradient>
<linearGradient id="paint1_linear_427_275" x1="127.559" y1="75.5653" x2="108.15" y2="48.2675" gradientUnits="userSpaceOnUse">
<stop stop-color="#3789B9"/>
<stop offset="0.3602" stop-color="#3789B9"/>
<stop offset="0.5753" stop-color="#1D76BB"/>
<stop offset="1" stop-color="#2A3B8F"/>
</linearGradient>
<linearGradient id="paint2_linear_427_275" x1="87.4856" y1="71.7267" x2="78.7011" y2="52.9192" gradientUnits="userSpaceOnUse">
<stop offset="0.3602" stop-color="#3789B9"/>
<stop offset="0.5753" stop-color="#1D76BB"/>
<stop offset="1" stop-color="#2A3B8F"/>
</linearGradient>
<linearGradient id="paint3_linear_427_275" x1="46.775" y1="31.5044" x2="47.4986" y2="79.2714" gradientUnits="userSpaceOnUse">
<stop stop-color="#3789B9"/>
<stop offset="0.3602" stop-color="#3789B9"/>
<stop offset="0.5753" stop-color="#1D76BB"/>
<stop offset="1" stop-color="#2A3B8F"/>
</linearGradient>
<linearGradient id="paint4_linear_427_275" x1="35.4582" y1="61.2004" x2="54.5185" y2="61.2004" gradientUnits="userSpaceOnUse">
<stop stop-color="#3789B9"/>
<stop offset="0.3602" stop-color="#3789B9"/>
<stop offset="0.5753" stop-color="#1D76BB"/>
<stop offset="1" stop-color="#2A3B8F"/>
</linearGradient>
<linearGradient id="paint5_linear_427_275" x1="60.7307" y1="69.477" x2="36.8005" y2="18.2428" gradientUnits="userSpaceOnUse">
<stop offset="0.3602" stop-color="#3789B9"/>
<stop offset="0.5753" stop-color="#1D76BB"/>
<stop offset="1" stop-color="#2A3B8F"/>
</linearGradient>
</defs>
</svg>
